<svg xmlns="http://www.w3.org/2000/svg" viewBox="0 0 478 542" fill="none">
  <path
    d="M0 0 C157.74 0 315.48 0 478 0 C478 178.86 478 357.72 478 542 C320.26 542 162.52 542 0 542 C0 363.14 0 184.28 0 0 Z "
    fill="currentColor"
    fill-opacity="0.14"
    transform="translate(0,0)"
  />
  <path
    d="M0 0 C0.96583008 -0.01023193 1.93166016 -0.02046387 2.92675781 -0.03100586 C15.02928026 0.11661106 25.78422835 3.85893348 34.484375 12.54296875 C39.48114167 18.57539005 43.375 25.48694898 43.375 33.4375 C44.19484375 33.08816406 45.0146875 32.73882812 45.859375 32.37890625 C46.93703125 31.92386719 48.0146875 31.46882813 49.125 31 C50.19234375 30.54753906 51.2596875 30.09507813 52.359375 29.62890625 C64.06139782 25.00569775 78.00834401 26.58645853 89.375 31.4375 C99.11751387 36.17004443 105.41185582 43.42041903 109.375 53.4375 C112.26089154 61.96248996 112.47213208 71.53368556 113.375 80.4375 C114.550625 79.9425 115.72625 79.4475 116.9375 78.9375 C126.18741202 75.85419599 137.13906964 76.45041472 146.375 79.4375 C147.17164063 79.68242188 147.96828125 79.92734375 148.7890625 80.1796875 C158.60118807 83.61241255 167.20400861 90.34368755 172.375 99.4375 C185.20673831 126.87513979 178.57393158 168.86931478 178.5625 198.4375 C178.56255614 200.84747314 178.56261721 203.25744629 178.56268311 205.66741943 C178.55623861 237.42728029 178.32712226 269.17467241 177.56311417 300.92590332 C177.50064964 303.53536126 177.44076251 306.14486903 177.38119507 308.75439453 C176.59253887 342.6522031 176.59253887 342.6522031 174.375 358.4375 C174.1992041 359.70480957 174.0234082 360.97211914 173.84228516 362.27783203 C171.60590253 377.41195583 168.74656995 392.0922897 163.375 406.4375 C163.14731934 407.07139648 162.91963867 407.70529297 162.68505859 408.35839844 C159.03892913 418.38988154 153.48253423 429.29657366 145.16598511 436.29690552 C140.51922947 440.28968601 137.82916112 443.17915786 137.26147461 449.41625977 C137.22142655 451.65345642 137.22889069 453.89187584 137.27734375 456.12890625 C137.26315147 457.9076841 137.26315147 457.9076841 137.24867249 459.72239685 C137.22819399 463.48289077 137.26939501 467.23975156 137.3125 471 C137.30942338 473.56055504 137.30230415 476.12110862 137.29101562 478.68164062 C137.26467775 484.93587357 137.32185634 491.18142891 137.375 497.4375 C129.785 497.4375 122.195 497.4375 114.375 497.4375 C114.28448229 489.45731961 114.21116021 481.47754107 114.16775131 473.49698448 C114.14691285 469.7909265 114.11866497 466.0852392 114.07324219 462.37939453 C114.02964888 458.80024214 114.00583477 455.22144536 113.99549103 451.64204788 C113.98812365 450.27931753 113.97373662 448.91660573 113.95207977 447.55402756 C113.7504744 434.3391686 113.7504744 434.3391686 118.375 429.4375 C120.05989027 427.88793163 121.79208055 426.38857972 123.5625 424.9375 C143.1511 407.51959933 146.69415246 381.30792391 150.796875 356.73828125 C151.375 353.4375 151.375 353.4375 151.89887142 351.46972656 C152.71335917 347.99330504 152.6063618 344.43040098 152.67211914 340.875 C152.70158615 339.56560676 152.70158615 339.56560676 152.73164845 338.22976112 C152.79603344 335.299089 152.85335815 332.36832839 152.91015625 329.4375 C152.95355313 327.33840628 152.99710549 325.23931577 153.040802 323.14022827 C153.15739883 317.43138546 153.26590161 311.72241701 153.37139511 306.01335907 C153.43740605 302.44258215 153.50490058 298.87183513 153.57241821 295.30108643 C154.25056436 258.98491747 154.56976013 222.67463831 154.56303024 186.35223389 C154.56250226 182.82759485 154.56367048 179.3029591 154.56497192 175.77832031 C154.56593663 170.20963304 154.56022181 164.64099066 154.54882431 159.07231522 C154.54500149 157.04104449 154.54252226 155.00977066 154.54156876 152.97849655 C156.08806539 129.15677678 156.08806539 129.15677678 149.25 107.75 C142.16105139 102.0480196 136.8002342 100.98700592 127.64453125 100.90625 C123.79255282 101.53213897 122.1350926 102.732912 119.375 105.4375 C118.08341289 108.02067422 118.0779407 110.12754496 117.87719727 113.01538086 C117.79557846 114.18919815 117.71395966 115.36301544 117.62986755 116.57240295 C117.54705032 117.85690842 117.46423309 119.14141388 117.37890625 120.46484375 C117.31372394 121.45784139 117.31372394 121.45784139 117.24722481 122.47089958 C116.2419072 137.92521721 115.77512965 153.38879384 115.36883545 168.86846924 C115.27432782 172.44429804 115.17545025 176.02000402 115.07617188 179.59570312 C115.0469461 180.64904626 115.0469461 180.64904626 115.0171299 181.72366905 C114.84870762 187.75676233 114.6697163 193.78949218 114.48406982 199.82208252 C114.41383489 202.15021144 114.34733692 204.47845764 114.28546143 206.80682373 C114.20526734 209.75596836 114.10752446 212.70394374 114.00390625 215.65234375 C113.98496811 216.487621 113.96602997 217.32289825 113.94651794 218.18348694 C113.72015405 223.82649798 112.50574814 227.14891867 108.6875 231.25 C105.26627695 233.00684427 102.0798151 233.21970664 98.375 232.4375 C95.3559566 230.68450706 92.95988799 228.60727599 91.375 225.4375 C91.27405986 224.09954155 91.23294342 222.7567971 91.22351074 221.41506958 C91.21516708 220.57244568 91.20682343 219.72982178 91.19822693 218.86166382 C91.19404251 217.9342337 91.18985809 217.00680359 91.18554688 216.05126953 C91.17725357 215.07492554 91.16896027 214.09858154 91.16041565 213.09265137 C91.14296731 210.96032487 91.12781376 208.82797868 91.11463928 206.69562149 C91.09351923 203.28302495 91.0664805 199.87051954 91.03796387 196.45797729 C90.97815705 189.15952167 90.92643025 181.86101863 90.875 174.5625 C90.64857706 136.67566514 90.64857706 136.67566514 89.89453125 98.796875 C89.86511948 97.72740316 89.86511948 97.72740316 89.83511353 96.63632584 C90.67388217 74.87191153 90.67388217 74.87191153 83.375 55.4375 C78.23456105 50.97688708 72.02848897 50.89768518 65.50390625 51.109375 C61.24398406 51.55610841 58.22218736 52.54888075 54.375 54.4375 C53.65659943 54.76401047 52.93819885 55.09052094 52.19802856 55.42692566 C49.11597703 58.82604614 49.77446657 62.87068639 49.76904297 67.29418945 C49.74372498 68.81796707 49.74372498 68.81796707 49.71789551 70.37252808 C49.66597292 73.76529807 49.64189788 77.15771263 49.6171875 80.55078125 C49.58475385 82.95064388 49.55038545 85.35048106 49.51419067 87.75028992 C49.42241759 94.12620666 49.35322635 100.50216356 49.28979492 106.87841797 C49.17442231 118.10282802 49.02153045 129.32684915 48.8671875 140.55078125 C48.85040703 141.77898716 48.83362656 143.00719307 48.81633759 144.27261734 C48.5685475 161.93832764 48.21075839 179.59872086 47.62546158 197.25673485 C47.54763848 199.63724334 47.47443131 202.01790765 47.40606308 204.39870644 C47.30994387 207.67817933 47.19520661 210.95645158 47.07470703 214.23510742 C47.04921909 215.2008412 47.02373116 216.16657497 46.99747086 217.16157341 C46.74889261 223.1407091 45.86542212 226.76260217 41.6875 231.25 C38.26193023 233.00907637 35.08454231 233.2079434 31.375 232.4375 C27.58805595 230.34471513 24.88566922 227.49927272 23.375 223.4375 C23.17612433 220.90674756 23.0843923 218.48450812 23.08789062 215.95385742 C23.0810066 215.19688285 23.07412258 214.43990828 23.06702995 213.65999508 C23.04605355 211.12096399 23.03886143 208.58207233 23.03125 206.04296875 C23.01829932 204.22198768 23.00432752 202.40101363 22.9894104 200.58004761 C22.95860587 196.65511587 22.93315248 192.73020006 22.91168213 188.8052063 C22.85248225 178.29959543 22.74801185 167.79435293 22.6484375 157.2890625 C22.63838558 156.20147455 22.62833366 155.1138866 22.61797714 153.99334145 C22.40068399 130.60031139 22.06556397 107.21021623 21.61791992 83.82046509 C21.5377743 79.61057291 21.46499685 75.4006536 21.39868164 71.19052124 C21.32023947 66.22726603 21.2279032 61.26446743 21.12455368 56.30167007 C21.08882267 54.47924777 21.05790254 52.65672382 21.03215408 50.83413315 C20.99599753 48.34344742 20.94192764 45.85376918 20.88330078 43.36352539 C20.8737801 42.28225514 20.8737801 42.28225514 20.86406708 41.17914104 C20.72982694 36.54732127 19.61873717 33.45606587 17.375 29.4375 C17.375 28.7775 17.375 28.1175 17.375 27.4375 C6.34062582 22.75625035 -2.81362607 21.97456886 -14.1171875 26.07421875 C-17.32801809 27.81967027 -19.7953287 29.24219571 -21.625 32.4375 C-22.37412996 36.74266482 -22.25139224 41.01191233 -22.18359375 45.37109375 C-22.17998932 46.72073998 -22.1784269 48.07039294 -22.1787262 49.42004395 C-22.17248687 53.12566049 -22.13343566 56.83030664 -22.08813477 60.53562546 C-22.05372697 63.67560808 -22.03821851 66.81557448 -22.02240562 69.95569706 C-21.84922078 103.10671717 -21.06696806 136.25615778 -20.26674747 169.396945 C-20.05211817 178.31366285 -19.8525456 187.23062335 -19.67181396 196.14809418 C-19.64146461 197.63230899 -19.61030545 199.11650756 -19.57818604 200.60068512 C-19.48669249 204.83918028 -19.42129205 209.07719153 -19.375 213.31640625 C-19.3536499 214.2901268 -19.3322998 215.26384735 -19.31030273 216.26707458 C-19.2843757 221.41244119 -19.67194179 225.01790097 -22.625 229.4375 C-26.64112795 232.11491863 -29.82774224 233.13710009 -34.625 232.4375 C-37.80653702 230.78554809 -40.00386978 229.5545422 -41.76745605 226.38290405 C-42.97122701 222.24831496 -43.01004997 218.28659641 -43.09570312 213.99853516 C-43.1220433 213.0527359 -43.14838348 212.10693665 -43.17552185 211.13247681 C-43.26088484 207.99733287 -43.33334418 204.8620187 -43.40625 201.7265625 C-43.46488499 199.52108183 -43.52451314 197.31562736 -43.58508301 195.11019897 C-43.74331148 189.27958182 -43.8914374 183.44875745 -44.03643799 177.61779785 C-44.84172066 140.5206735 -44.84172066 140.5206735 -46.59375 103.4609375 C-46.66654175 102.29333893 -46.7393335 101.12574036 -46.81433105 99.92276001 C-47.16799897 84.59087538 -47.16799897 84.59087538 -53.625 71.4375 C-57.85616556 68.77791022 -62.78475102 68.70227231 -67.625 69.4375 C-74.42339848 71.73093563 -79.87451604 75.21663263 -83.625 81.4375 C-84.45631801 85.0012351 -84.3959084 88.44003298 -84.31640625 92.0859375 C-84.31625519 93.14178543 -84.31610413 94.19763336 -84.31594849 95.28547668 C-84.30500003 98.79550376 -84.24775291 102.30299646 -84.1875 105.8125 C-84.16473261 108.30117886 -84.14302625 110.78986763 -84.12231445 113.27856445 C-83.65450062 155.53975294 -81.10510435 197.77437669 -78.14144897 239.9226532 C-77.56063695 248.24098145 -77.04434761 256.56252513 -76.56936646 264.88754272 C-76.4840203 266.37611327 -76.39695514 267.86458668 -76.30783081 269.35293579 C-76.06859881 273.36146473 -75.86231532 277.36915148 -75.70758057 281.38208008 C-75.64984553 282.81909792 -75.58368672 284.25579093 -75.51116943 285.69213867 C-75.40116489 287.98732955 -75.32756527 290.2812865 -75.26171875 292.578125 C-75.22287064 293.27605164 -75.18402252 293.97397827 -75.14399719 294.6930542 C-75.07571735 298.52405042 -75.61776662 300.91223125 -77.96020508 303.86621094 C-81.25761591 307.04791784 -82.76381326 307.39371084 -87.3125 307.625 C-92.87030374 307.52283449 -97.64856818 307.0899266 -102.0078125 303.4453125 C-105.36620894 299.58566285 -107.77393797 295.4261574 -110.3125 291 C-122.85571335 269.66205323 -137.08628418 247.61707194 -161.625 239.4375 C-163.08500289 239.3453259 -164.54881071 239.30682692 -166.01171875 239.3046875 C-167.2965918 239.30275391 -167.2965918 239.30275391 -168.60742188 239.30078125 C-169.94643555 239.30658203 -169.94643555 239.30658203 -171.3125 239.3125 C-172.18583984 239.30863281 -173.05917969 239.30476562 -173.95898438 239.30078125 C-179.27169592 239.30871659 -184.36818643 239.66641908 -189.625 240.4375 C-164.49935858 302.76244732 -134.03522628 358.6013901 -94.34375 412.9296875 C-93.79404541 413.68491699 -93.24434082 414.44014648 -92.67797852 415.21826172 C-91.66854126 416.60496032 -90.65644646 417.98973281 -89.64038086 419.37158203 C-88.61187561 420.78601376 -87.60775285 422.21833061 -86.62158203 423.66259766 C-85.01391632 425.89697384 -83.35535285 427.94305575 -81.57763672 430.03662109 C-70.87412057 443.33437342 -71.16699997 455.54249921 -71.875 472.0625 C-71.93533702 474.53372269 -71.99006421 477.00508899 -72.0390625 479.4765625 C-72.15957574 485.47008772 -72.39428675 491.44322785 -72.625 497.4375 C-79.885 497.4375 -87.145 497.4375 -94.625 497.4375 C-94.56957031 494.3746875 -94.51414062 491.311875 -94.45703125 488.15625 C-94.44077308 485.1341019 -94.44352249 482.11251258 -94.44799805 479.09033203 C-94.4410942 477.01692951 -94.41494834 474.94348607 -94.36791992 472.87060547 C-94.05611513 458.37343436 -95.74517028 449.15312315 -105.28848267 438.01263428 C-107.04032675 435.94802233 -108.57874704 433.7589603 -110.12109375 431.53515625 C-111.09987173 430.18887332 -112.08030721 428.84379366 -113.0625 427.5 C-117.8680348 420.88509379 -122.61766771 414.23423117 -127.31835938 407.54443359 C-129.57335264 404.33695144 -131.83468983 401.13596142 -134.140625 397.96484375 C-163.59422455 357.4180997 -185.43399005 312.62300926 -204.73919678 266.54693604 C-205.60801694 264.47794315 -206.48204205 262.41123278 -207.35791016 260.34521484 C-208.94028569 256.61096702 -210.50335525 252.86900909 -212.0625 249.125 C-212.76270264 247.47177734 -212.76270264 247.47177734 -213.47705078 245.78515625 C-213.89583496 244.76679688 -214.31461914 243.7484375 -214.74609375 242.69921875 C-215.1114624 241.82225342 -215.47683105 240.94528809 -215.85327148 240.04174805 C-217.13863113 235.70421836 -217.10198697 232.49988007 -215.25 228.375 C-207.27048275 219.44554022 -191.79704336 215.96961572 -180.20947266 215.29736328 C-168.55060809 214.88045672 -157.45263711 214.53441904 -146.625 219.4375 C-145.56539063 219.911875 -144.50578125 220.38625 -143.4140625 220.875 C-125.81666426 229.56920151 -112.6557351 244.55352548 -101.625 260.4375 C-101.44225641 249.34332015 -101.92671149 238.41024154 -102.73617554 227.34957886 C-105.65104998 186.99688244 -107.80872134 146.46278316 -108.0987854 105.99832153 C-108.11602953 103.73821663 -108.14102002 101.47815526 -108.17440796 99.2182312 C-108.46668698 77.2840662 -108.46668698 77.2840662 -102.625 67.4375 C-102.22595459 66.74277588 -101.82690918 66.04805176 -101.41577148 65.33227539 C-95.50214416 55.63159609 -83.20207445 49.20703565 -72.625 46.0625 C-63.60034908 44.24633581 -55.18303765 45.25663645 -46.625 48.4375 C-46.59921875 47.18195313 -46.5734375 45.92640625 -46.546875 44.6328125 C-46.1852663 32.48494424 -45.47643427 22.53169673 -36.7265625 13.31640625 C-25.79916457 3.54674378 -14.37949337 0.11788346 0 0 Z "
    fill="currentColor"
    transform="translate(244.625,18.5625)"
  />
</svg>
