<svg xmlns="http://www.w3.org/2000/svg" viewBox="0 0 1171 1343" fill="none">

<path d="M0 0 C9.34227113 4.99170369 17.08962968 14.80022711 24.5 22.234375 C25.98660608 23.71963204 27.47350878 25.20459223 28.96069336 26.68927002 C32.06022439 29.78586654 35.15614389 32.88601659 38.24951172 35.98876953 C42.21845756 39.96916888 46.19639616 43.94044127 50.17703247 47.90914536 C53.24146752 50.96636756 56.30114086 54.02831941 59.359375 57.09174347 C60.82516622 58.55886968 62.29244687 60.02450938 63.76123047 61.48863983 C65.80532668 63.52767388 67.84293105 65.57297867 69.87890625 67.62011719 C70.48767105 68.22483353 71.09643585 68.82954987 71.72364807 69.45259094 C76.00983433 73.78255887 77.18906803 76.60846636 77.5 82.625 C77.36162373 89.87245704 74.99094463 92.97147296 70 98 C69.40960937 98.59893066 68.81921875 99.19786133 68.2109375 99.81494141 C65.47597332 102.58409263 62.73432478 105.34462578 59.95117188 108.06542969 C56.01802029 111.91274625 52.31772378 115.86530509 48.72802734 120.03393555 C45.88161315 123.2724455 42.85867319 126.32550492 39.8125 129.375 C39.20986328 129.98988281 38.60722656 130.60476563 37.98632812 131.23828125 C37.39916016 131.82738281 36.81199219 132.41648437 36.20703125 133.0234375 C35.6860083 133.54856934 35.16498535 134.07370117 34.62817383 134.61474609 C31.66169852 137.13862987 29.54275666 137.95229976 25.61645508 138.29736328 C21.20566172 139.15433103 19.11452695 141.09264303 16.13671875 144.2421875 C15.3596331 145.02845016 15.3596331 145.02845016 14.56684875 145.83059692 C12.92578417 147.49845851 11.30705173 149.18626962 9.6875 150.875 C8.58142093 152.00262081 7.47401066 153.12893748 6.36523438 154.25390625 C0.80527522 159.80977478 0.80527522 159.80977478 -4 166 C-4.66 166 -5.32 166 -6 166 C-6.25885986 166.58555664 -6.51771973 167.17111328 -6.78442383 167.77441406 C-8.09221724 170.1688396 -9.49736101 171.71093329 -11.44921875 173.609375 C-12.47499023 174.61871094 -12.47499023 174.61871094 -13.52148438 175.6484375 C-14.23626953 176.34195313 -14.95105469 177.03546875 -15.6875 177.75 C-20.45003158 182.39335794 -25.02085857 187.08982544 -29.35864258 192.13378906 C-31.78025973 194.88714939 -34.37569109 197.44172237 -37 200 C-40.26586257 203.2216274 -43.46854499 206.43546579 -46.4375 209.9375 C-49.60010003 213.65957718 -53.02970978 217.06865804 -56.5 220.5 C-59.92845105 223.89005854 -63.32260742 227.25194008 -66.4375 230.9375 C-69.74572678 234.84270003 -73.3651399 238.40280684 -77 242 C-82.38538412 247.31201452 -82.38538412 247.31201452 -87.4375 252.9375 C-91.49941519 257.74738935 -96.05528083 262.07886712 -100.52441406 266.50488281 C-104.25001471 270.20825212 -107.81195229 273.96301318 -111.19921875 277.98046875 C-114.18484963 281.3287793 -117.41447753 284.43377199 -120.60498047 287.58544922 C-123.28635197 290.24671671 -125.87529999 292.92186743 -128.3125 295.8125 C-132.42432439 300.65531539 -137.00939023 305.03347737 -141.51953125 309.5 C-145.28999824 313.24793432 -148.90212483 317.04853354 -152.33203125 321.11328125 C-155.25504609 324.4196423 -158.45161624 327.45823324 -161.58984375 330.55859375 C-164.26854532 333.27202727 -166.74608118 336.10777023 -169.22265625 339.00390625 C-171.23268777 341.26132626 -173.34832953 343.37735713 -175.5 345.5 C-178.24500542 348.20803565 -180.8727091 350.94169249 -183.375 353.875 C-186.26218558 357.24562131 -189.34296171 360.38450169 -192.5 363.5 C-201.24990208 372.15789157 -209.04732262 380.6398376 -213.625 392.1875 C-213.92349854 392.93652588 -214.22199707 393.68555176 -214.52954102 394.45727539 C-222.02851806 413.67765431 -222.23374748 432.14584791 -214.04248047 451.23095703 C-211.58940479 456.57250277 -208.90817669 461.80056322 -205.89672852 466.84985352 C-203.97542546 470.07855982 -202.45734281 472.80110271 -202.0625 476.5625 C-201.97097656 477.26503906 -201.87945313 477.96757813 -201.78515625 478.69140625 C-202.28497491 484.06218494 -205.55997894 487.93229533 -209.26855469 491.59326172 C-210.12664734 492.44790009 -210.98473999 493.30253845 -211.86883545 494.18307495 C-212.7938385 495.08945709 -213.71884155 495.99583923 -214.671875 496.9296875 C-215.63804073 497.88770027 -216.60346197 498.84646439 -217.56817627 499.80593872 C-220.10393845 502.32464035 -222.64813019 504.83464094 -225.19470215 507.34240723 C-229.25733738 511.34573391 -233.30744219 515.36172202 -237.35666656 519.37860489 C-238.76008906 520.76826236 -240.16767996 522.15370616 -241.57537842 523.53903198 C-242.44607971 524.39997467 -243.31678101 525.26091736 -244.21386719 526.14794922 C-244.97092957 526.89374237 -245.72799194 527.63953552 -246.50799561 528.40792847 C-248.51901533 530.49970126 -250.42332497 532.62115458 -252.31838989 534.81541443 C-255.94296652 538.98852541 -259.77426827 542.90857914 -263.69189453 546.80541992 C-264.42615662 547.53982803 -265.1604187 548.27423615 -265.91693115 549.03089905 C-268.31985953 551.4331366 -270.72630084 553.83182134 -273.1328125 556.23046875 C-274.81498778 557.91077596 -276.4969402 559.59130631 -278.17868042 561.27204895 C-282.5902153 565.67978146 -287.0047435 570.08450397 -291.41992188 574.48858643 C-295.91066389 578.96909458 -300.39857622 583.45243508 -304.88671875 587.93554688 C-312.13344793 595.17350284 -319.38190458 602.40972335 -326.63259888 609.64370728 C-327.87562952 610.88391446 -329.11832805 612.12445465 -330.36061859 613.36540318 C-331.80589351 614.80646001 -333.25672395 616.24194046 -334.70840454 617.67654419 C-336.92121927 619.92012397 -339.01714113 622.22723034 -341.09863281 624.5925293 C-346.33518092 630.44154746 -351.85853636 635.98519903 -357.421875 641.51953125 C-358.49584707 642.59163123 -359.56959338 643.6639574 -360.64312744 644.73649597 C-363.44022038 647.52981367 -366.24030136 650.32011637 -369.04107666 653.10974121 C-371.88989185 655.94827995 -374.73584235 658.7896877 -377.58203125 661.63085938 C-382.58544986 666.62477033 -387.5913267 671.61620506 -392.59906006 676.60578918 C-394.28608973 678.28809061 -395.97153783 679.9719788 -397.65582275 681.6570282 C-399.24146994 683.24186 -400.832938 684.82088584 -402.4296875 686.39453125 C-403.64011719 687.59142578 -403.64011719 687.59142578 -404.875 688.8125 C-406.07769531 689.99779297 -406.07769531 689.99779297 -407.3046875 691.20703125 C-409.35248611 693.32902547 -411.28107483 695.46430804 -413.19918823 697.69819641 C-416.81228929 701.83982326 -420.61251506 705.74729669 -424.50830078 709.62182617 C-425.22305573 710.33672714 -425.93781067 711.05162811 -426.67422485 711.78819275 C-429.01222209 714.12549942 -431.35373121 716.45925317 -433.6953125 718.79296875 C-435.33264734 720.4284354 -436.96975924 722.06412529 -438.60665894 723.70002747 C-442.89982604 727.98939294 -447.19598621 732.2757482 -451.49279785 736.5614624 C-455.86289407 740.92132397 -460.23016004 745.28401852 -464.59765625 749.64648438 C-471.64971314 756.68976951 -478.70349382 763.73132266 -485.75952148 770.77062988 C-486.97257866 771.98085682 -488.18529867 773.19142184 -489.39761066 774.40239525 C-490.79983391 775.80043158 -492.2076049 777.19289905 -493.61628723 778.58442688 C-496.2814563 781.2852182 -498.83680565 784.07623219 -501.38891602 786.8828125 C-508.30650844 794.42707292 -515.52619916 801.65321469 -522.77734375 808.875 C-524.16091154 810.25669582 -525.54425362 811.63861769 -526.92738342 813.02075195 C-530.5283427 816.61793776 -534.13229395 820.21211062 -537.73693848 823.80560303 C-541.41044793 827.46882168 -545.08107801 831.1349231 -548.75195312 834.80078125 C-554.67043144 840.71052564 -560.59060684 846.61856317 -566.51313782 852.52424622 C-567.53409937 853.5423683 -568.55488538 854.56066645 -569.57546329 855.57917309 C-570.96331172 856.96340727 -572.3530148 858.34578116 -573.74276733 859.72810364 C-576.18897685 862.1902045 -578.50158694 864.74522286 -580.82421875 867.32421875 C-586.76349047 873.82535499 -592.97243102 880.05376107 -599.20703125 886.26953125 C-599.71281582 886.77387569 -600.21860039 887.27822014 -600.73971176 887.79784775 C-604.42711539 891.47294744 -608.11935608 895.14317016 -611.8125 898.8125 C-615.52777076 902.50395852 -619.24126496 906.19717194 -622.95056725 909.89462852 C-624.41457429 911.35225921 -625.88160389 912.80679666 -627.34883118 914.26118469 C-631.09788697 917.99650669 -634.8161841 921.70744274 -638.24291992 925.74291992 C-643.34657238 931.68967678 -649.00942127 937.11856952 -654.56388855 942.63905334 C-656.69431126 944.75658088 -658.82147922 946.8773315 -660.94787598 948.99890137 C-666.22694934 954.2646852 -671.51147737 959.52498392 -676.7958374 964.78546143 C-681.27173302 969.24155061 -685.74552329 973.69973385 -690.21659851 978.16065979 C-692.30107178 980.23870342 -694.38855921 982.31368535 -696.47619629 984.3885498 C-701.94295347 989.83425523 -707.3708234 995.24462693 -712.36862183 1001.13040161 C-718.51170509 1008.1705219 -725.33927293 1014.64859577 -731.9230957 1021.27319336 C-733.85110439 1023.2145644 -735.77156605 1025.1629581 -737.68579102 1027.11791992 C-740.47015215 1029.96147168 -743.27524625 1032.78404066 -746.08203125 1035.60546875 C-746.92715775 1036.47326462 -747.77228424 1037.34106049 -748.64302063 1038.2351532 C-755.73814373 1045.30554136 -763.71350252 1051.01787295 -774.0625 1051.25 C-785.1745911 1050.9735326 -793.6222053 1046.3147619 -802.8125 1040.4375 C-803.96785159 1039.71085466 -805.12361704 1038.98486694 -806.27978516 1038.25952148 C-814.41211184 1033.13060601 -822.31957849 1027.78314433 -830 1022 C-831.02738281 1021.24460937 -832.05476563 1020.48921875 -833.11328125 1019.7109375 C-842.692386 1012.62702522 -851.85551216 1005.14681198 -860.66015625 997.12109375 C-862.78804815 995.19213665 -864.94720859 993.30963647 -867.125 991.4375 C-870.49785036 988.50488111 -873.64614251 985.40220954 -876.75 982.1875 C-878.69816733 980.29344843 -880.69145446 978.53565809 -882.75390625 976.76953125 C-887.09985045 972.99285445 -891.02682554 968.9076523 -894.9375 964.6875 C-895.63625244 963.93839355 -896.33500488 963.18928711 -897.05493164 962.41748047 C-899.04182926 960.2830718 -901.02235337 958.14297873 -903 956 C-903.48210937 955.47905762 -903.96421875 954.95811523 -904.4609375 954.42138672 C-921.52097073 935.93747649 -936.5434402 915.64156765 -949.4375 894.0625 C-949.85088623 893.37671875 -950.26427246 892.6909375 -950.69018555 891.984375 C-955.25562762 884.20698351 -957.52928541 877.63365696 -957.5 868.5625 C-957.54253906 867.37043945 -957.54253906 867.37043945 -957.5859375 866.15429688 C-957.61454495 857.36465849 -953.800973 851.65510684 -947.8203125 845.46484375 C-946.26535029 843.94528118 -944.7000384 842.43624344 -943.125 840.9375 C-941.5626765 839.42829032 -940.00275162 837.91659339 -938.4453125 836.40234375 C-937.75969238 835.74741943 -937.07407227 835.09249512 -936.36767578 834.41772461 C-934.48801037 832.49832612 -932.75547494 830.56230986 -931.01513672 828.52172852 C-926.30821588 823.09973152 -921.19484625 818.08327017 -916.10287476 813.02770996 C-914.27487821 811.21264434 -912.45017044 809.39432699 -910.6262207 807.57519531 C-906.09843857 803.06068084 -901.56519193 798.55166663 -897.03210449 794.04248047 C-893.19033661 790.22054384 -889.35069298 786.39649624 -885.51376343 782.56970215 C-883.72844455 780.79079745 -881.94010861 779.01496604 -880.15161133 777.23925781 C-873.67129886 770.81847064 -873.67129886 770.81847064 -867.5546875 764.0546875 C-862.81027486 758.49729735 -857.5425635 753.43293918 -852.36209106 748.28692627 C-850.3996836 746.33743245 -848.44054846 744.38470075 -846.48217773 742.43115234 C-841.62048803 737.58274085 -836.75333856 732.73982231 -831.88635254 727.89672852 C-827.76275058 723.79294582 -823.64126374 719.68706033 -819.52249146 715.57843018 C-817.60421486 713.66657521 -815.68292257 711.75778794 -813.76147461 709.84912109 C-806.97133236 703.14019157 -806.97133236 703.14019157 -800.56787109 696.06787109 C-795.54546253 690.17226966 -789.92704145 684.81823958 -784.4379158 679.36275101 C-782.31755424 677.25526068 -780.20042707 675.14456766 -778.08407593 673.03305054 C-773.60053323 668.56087002 -769.11304469 664.09266193 -764.625 659.625 C-759.40150856 654.42511035 -754.17964738 649.22360486 -748.96195602 644.01789474 C-746.87385224 641.93628294 -744.78276689 639.85769786 -742.69155884 637.77920532 C-741.42003979 636.51131641 -740.14865959 635.24328823 -738.87744141 633.97509766 C-738.29358673 633.3964093 -737.70973206 632.81772095 -737.10818481 632.22149658 C-734.19404854 629.38422369 -734.19404854 629.38422369 -732 626 C-731.34 626 -730.68 626 -730 626 C-729.73036532 625.40518703 -729.46073065 624.81037407 -729.18292522 624.19753647 C-728.00213321 622.00396289 -726.83162428 620.5872184 -725.07319641 618.8394165 C-724.47474411 618.23966003 -723.87629181 617.63990356 -723.25970459 617.02197266 C-722.60463928 616.37566895 -721.94957397 615.72936523 -721.2746582 615.06347656 C-720.58335312 614.37348572 -719.89204803 613.68349487 -719.17979431 612.97259521 C-716.89134836 610.69064396 -714.59601148 608.41575062 -712.30078125 606.140625 C-710.70564275 604.5517596 -709.11102011 602.96237616 -707.51689148 601.37249756 C-703.31355404 597.18247295 -699.10469694 592.99804055 -694.89422607 588.81518555 C-688.17175651 582.1357853 -681.45587111 575.44978308 -674.74336815 568.76036835 C-672.40441972 566.43158469 -670.06205298 564.10628113 -667.71931458 561.78131104 C-666.27019552 560.33902745 -664.82118965 558.89663013 -663.37231445 557.45410156 C-662.7273703 556.81589478 -662.08242615 556.17768799 -661.41793823 555.5201416 C-657.6477497 551.75928176 -654.09552069 547.8703756 -650.61456585 543.84096909 C-648.47355118 541.39972965 -646.21319666 539.10076129 -643.91015625 536.8125 C-643.45220673 536.35601074 -642.9942572 535.89952148 -642.52243042 535.42919922 C-641.54423103 534.45475621 -640.5648805 533.48146757 -639.58444214 532.50927734 C-638.02526273 530.9630726 -636.46941379 529.41358104 -634.91430664 527.86328125 C-631.05434197 524.01655775 -627.18890098 520.17535284 -623.3236084 516.33398438 C-620.04550558 513.07574304 -616.76955008 509.8153701 -613.49630737 506.55224609 C-611.97690534 505.03923948 -610.45448297 503.5293203 -608.93188477 502.01953125 C-605.05836665 498.16628946 -601.20851607 494.32620576 -597.6640625 490.1640625 C-592.87398682 484.57693746 -587.57982061 479.46994845 -582.36209106 474.28692627 C-580.3996836 472.33743245 -578.44054846 470.38470075 -576.48217773 468.43115234 C-571.62048803 463.58274085 -566.75333856 458.73982231 -561.88635254 453.89672852 C-557.76275058 449.79294582 -553.64126374 445.68706033 -549.52249146 441.57843018 C-547.60421486 439.66657521 -545.68292257 437.75778794 -543.76147461 435.84912109 C-538.59719352 430.70629388 -533.52546115 425.57389523 -528.79736328 420.0222168 C-525.06413639 415.82195622 -521.0169378 411.91030504 -517.02885437 407.95368958 C-515.36886941 406.30666117 -513.71219765 404.65636048 -512.05627441 403.00524902 C-507.94587777 398.90810448 -503.83000966 394.81647096 -499.71429443 390.72467041 C-496.22481779 387.25504276 -492.73747892 383.78329203 -489.25285339 380.30879211 C-487.63373229 378.69607417 -486.01159216 377.08643782 -484.38928223 375.47692871 C-479.67014705 370.78100232 -475.08105324 366.03858906 -470.75018311 360.9772644 C-467.12098037 356.8771829 -463.18655281 353.06578458 -459.3046875 349.20703125 C-458.39421661 348.29797531 -457.48374573 347.38891937 -456.54568481 346.45231628 C-454.14640541 344.05681698 -451.744141 341.664334 -449.34118652 339.27252197 C-446.90141814 336.84301155 -444.46449655 334.41064935 -442.02734375 331.97851562 C-438.45709837 328.41618554 -434.88534556 324.85537492 -431.31201172 321.29614258 C-430.55448105 320.54130081 -429.79695038 319.78645905 -429.01646423 319.00874329 C-427.81834793 317.81521451 -426.61976562 316.62215276 -425.42018127 315.43009949 C-423.14406549 313.1643615 -420.91001492 310.87050958 -418.73046875 308.51171875 C-418.15522461 307.89119629 -417.57998047 307.27067383 -416.98730469 306.63134766 C-416.39336914 305.98987793 -415.79943359 305.3484082 -415.1875 304.6875 C-399.55596976 287.88217353 -399.55596976 287.88217353 -393.84375 287.625 C-388.46229332 287.69377261 -385.60760129 289.74244915 -381.5 293 C-363.24479568 306.44410903 -343.87509581 312.34716217 -321.23046875 309.53125 C-302.38479659 305.97785727 -289.24746231 296.75789155 -276.16992188 283.45117188 C-274.37881997 281.62888648 -272.57724929 279.81750948 -270.7734375 278.0078125 C-265.56557503 272.76431241 -260.4590576 267.49737808 -255.65966797 261.87353516 C-252.25304694 258.02793207 -248.53641269 254.47569274 -244.875 250.875 C-238.72263021 244.89065097 -238.72263021 244.89065097 -233.0703125 238.4453125 C-232.38710938 237.63835937 -231.70390625 236.83140625 -231 236 C-230.34 236 -229.68 236 -229 236 C-228.78625732 235.45956055 -228.57251465 234.91912109 -228.35229492 234.36230469 C-226.51252094 231.14842979 -223.99260168 228.76647363 -221.36328125 226.203125 C-220.80561569 225.65066101 -220.24795013 225.09819702 -219.67338562 224.5289917 C-217.89112195 222.76449486 -216.10233665 221.00681205 -214.3125 219.25 C-212.54133427 217.50667898 -210.77173379 215.76184233 -209.00517273 214.01385498 C-207.90827179 212.92896408 -206.80871422 211.84674924 -205.70588684 210.7678833 C-202.86361404 207.96175585 -200.16893487 205.08253787 -197.55737305 202.05957031 C-194.13116282 198.09988041 -190.50733458 194.394963 -186.78125 190.71875 C-186.11967896 190.06096558 -185.45810791 189.40318115 -184.77648926 188.72546387 C-181.98421856 185.94933442 -179.18594584 183.17928463 -176.38818359 180.40869141 C-174.32959102 178.3683292 -172.27412097 176.32485669 -170.21875 174.28125 C-169.59875122 173.66954956 -168.97875244 173.05784912 -168.33996582 172.4276123 C-165.29521072 169.39968927 -162.37239048 166.32140199 -159.56835938 163.06835938 C-155.80588991 158.71412338 -151.77823514 154.66919303 -147.6875 150.625 C-146.5286731 149.47185303 -146.5286731 149.47185303 -145.34643555 148.29541016 C-142.07623964 145.0414017 -138.8000651 141.79343734 -135.52441406 138.54492188 C-133.11834715 136.15704648 -130.71536962 133.76609207 -128.3125 131.375 C-127.58313232 130.65393066 -126.85376465 129.93286133 -126.10229492 129.18994141 C-122.12248037 125.22897111 -118.35191105 121.16387256 -114.68652344 116.91137695 C-111.99451182 113.86045643 -109.11550883 111.01129388 -106.21875 108.15625 C-105.60157104 107.54285767 -104.98439209 106.92946533 -104.34851074 106.29748535 C-101.74741211 103.71250482 -99.14029986 101.13362178 -96.53369141 98.55419922 C-87.30699895 89.44929167 -87.30699895 89.44929167 -78.63769531 79.82080078 C-76.67366335 77.63717669 -74.56803361 75.66419289 -72.4140625 73.66796875 C-71.62902344 72.93126953 -70.84398437 72.19457031 -70.03515625 71.43554688 C-68.42159728 69.9305174 -66.79104809 68.44350983 -65.14453125 66.97460938 C-60.84013926 62.8736588 -58.55364391 60.21839041 -58.125 54.16015625 C-58.14046875 53.26562744 -58.1559375 52.37109863 -58.171875 51.44946289 C-57.83762072 46.68586466 -54.30432785 44.12823515 -51 41 C-49.15536528 39.16925077 -47.32108725 37.32843518 -45.48681641 35.48730469 C-44.19545863 34.19562955 -42.89853739 32.90948428 -41.59521484 31.62988281 C-38.46421833 28.54532574 -35.45088677 25.42084657 -32.58203125 22.08984375 C-28.6561153 17.53816931 -24.44727353 13.30010646 -20.1875 9.0625 C-19.0437793 7.91297852 -19.0437793 7.91297852 -17.87695312 6.74023438 C-17.14798828 6.01255859 -16.41902344 5.28488281 -15.66796875 4.53515625 C-14.68219849 3.55107788 -14.68219849 3.55107788 -13.67651367 2.54711914 C-9.72236043 -1.10184971 -5.08172871 -0.76272377 0 0 Z " fill="currentColor" transform="translate(1021,126)"/>
<path d="M0 0 C3.47119371 1.33051448 6.81661557 2.84747425 10.16430664 4.4621582 C17.29666139 7.8921099 24.42481597 10.6734151 32 13 C33.33611328 13.45632813 33.33611328 13.45632813 34.69921875 13.921875 C46.10761692 17.64816837 57.77895529 20.85064414 69.625 22.8125 C70.63288574 22.97963501 70.63288574 22.97963501 71.66113281 23.15014648 C82.51238436 24.81275292 93.34936712 25.1654677 104.3125 25.125 C106.2164856 25.12209961 106.2164856 25.12209961 108.15893555 25.11914062 C116.80945196 25.07922796 125.38776864 24.83296193 134 24 C134.05556738 25.47870971 134.09347512 26.95808244 134.125 28.4375 C134.14820313 29.26121094 134.17140625 30.08492187 134.1953125 30.93359375 C134 34 134 34 133.01171875 37.74609375 C131.26772212 45.21626439 131.65193359 52.99648127 131.6875 60.625 C131.68965515 61.44913391 131.6918103 62.27326782 131.69403076 63.12237549 C131.81556306 92.08991556 136.12977168 123.10890714 150 149 C150.7115625 150.670625 150.7115625 150.670625 151.4375 152.375 C153.11660242 156.27051761 155.07175381 159.94989561 157.109375 163.66796875 C158.1787895 166.46814618 158.06618301 167.23442807 157 170 C155.12908936 172.22494507 155.12908936 172.22494507 152.65136719 174.67333984 C151.72660583 175.59464691 150.80184448 176.51595398 149.84906006 177.46517944 C148.83174292 178.4638448 147.8143459 179.46242879 146.796875 180.4609375 C145.75580402 181.49386643 144.71547035 182.52753897 143.67584229 183.56192017 C140.93540552 186.28523766 138.18653597 188.99987445 135.43536377 191.71234131 C131.04433561 196.04421391 126.66576918 200.38866983 122.28800201 204.73393631 C120.763663 206.24441579 119.23551135 207.75094995 117.70672607 209.25692749 C113.22858595 213.68844738 108.96503869 218.10833918 105 223 C103.34555556 224.67879991 101.67627231 226.34299466 100 228 C98.90360079 229.09306779 97.807784 230.18671997 96.71243286 231.28083801 C95.45299565 232.53725471 94.19354453 233.79365747 92.93408203 235.05004883 C85.88356876 242.08419015 78.83562915 249.12090453 71.78912544 256.15906239 C67.53245418 260.4105131 63.2748523 264.66102318 59.01513672 268.90942383 C54.88339725 273.03026218 50.75413782 277.15357095 46.62655258 281.27857018 C45.05905377 282.84423 43.49067922 284.4090136 41.92139053 285.97287941 C39.7201354 288.16682629 37.52207985 290.36393323 35.32470703 292.56176758 C34.68447601 293.19840332 34.044245 293.83503906 33.38461304 294.4909668 C30.32355633 297.55894198 27.37598599 300.67571338 24.54391479 303.95707703 C20.87060673 308.20543478 16.95697491 312.1695961 12.97265625 316.125 C12.20259247 316.89360352 11.43252869 317.66220703 10.63912964 318.45410156 C8.97992892 320.10952005 7.31957479 321.76378314 5.65817261 323.41699219 C3.02369682 326.03861386 0.39243675 328.66342578 -2.23803711 331.2890625 C-8.29607016 337.33474534 -14.35876204 343.37574831 -20.42170715 349.41650391 C-26.42823831 355.40116545 -32.43274659 361.38784325 -38.43386841 367.37792969 C-41.01692943 369.95454318 -43.603001 372.52810829 -46.18920898 375.1015625 C-47.78384047 376.69255894 -49.37833031 378.28369737 -50.97265625 379.875 C-51.68455109 380.58172852 -52.39644592 381.28845703 -53.12991333 382.01660156 C-57.03927036 385.92554887 -60.74470725 389.94427129 -64.3561058 394.129282 C-66.77795204 396.88529352 -69.34498868 399.47723052 -71.94775391 402.0612793 C-72.49669815 402.61036957 -73.0456424 403.15945984 -73.61122131 403.72518921 C-75.39730417 405.51058454 -77.1868868 407.29242555 -78.9765625 409.07421875 C-80.23275379 410.32854048 -81.48872116 411.58308649 -82.74447632 412.83784485 C-86.03151663 416.12109191 -89.32154696 419.40132637 -92.61224365 422.6809082 C-95.95685166 426.01527255 -99.29862303 429.35247713 -102.640625 432.68945312 C-108.03796551 438.07803847 -113.43698731 443.46493201 -118.83836365 448.84947205 C-120.2258286 450.2327278 -121.61292214 451.61635608 -123 453 C-123.85808258 453.84756866 -124.71616516 454.69513733 -125.60025024 455.56838989 C-127.84598902 457.84394429 -129.97370407 460.17888964 -132.08496094 462.57885742 C-137.39592722 468.51093369 -142.99886939 474.12531705 -148.640625 479.73828125 C-149.73701723 480.83280156 -150.83318384 481.92754794 -151.92913818 483.02250671 C-154.7854153 485.87500748 -157.64468078 488.7244935 -160.50463867 491.57330322 C-163.41377624 494.47216582 -166.32005027 497.37389619 -169.2265625 500.27539062 C-174.33581688 505.37513552 -179.44752974 510.47240432 -184.56109619 515.56782532 C-187.04303693 518.04291819 -189.52201275 520.52094953 -192 523 C-194 525 -194 525 -197.66796875 525.35546875 C-202.16904364 525.22883486 -205.5176928 523.62357885 -209.3125 521.3125 C-209.98764648 520.91675781 -210.66279297 520.52101563 -211.35839844 520.11328125 C-228.15015799 510.08561237 -244.00463195 498.42361199 -258.83203125 485.6953125 C-261.75487884 483.19153987 -264.74545459 480.78031251 -267.75 478.375 C-272.08031021 474.85544453 -276.0109199 471.09593407 -279.90234375 467.1015625 C-281.78703065 465.21336594 -283.71617096 463.4738718 -285.75 461.75 C-293.83344909 454.80050169 -301.43674096 447.06801188 -308.3359375 438.9453125 C-310.30139014 436.64767068 -312.33729871 434.42126877 -314.375 432.1875 C-319.10491832 426.9373707 -323.5934079 421.52322854 -328 416 C-328.75796875 415.06027344 -329.5159375 414.12054687 -330.296875 413.15234375 C-355.80208708 380.85407682 -355.80208708 380.85407682 -358.5703125 367.18359375 C-356.94348954 358.10235597 -344.64316971 349.52951324 -338.25091553 343.17575073 C-336.08688959 341.02461663 -333.92611522 338.87026211 -331.76611328 336.71508789 C-326.40356327 331.36582947 -321.03555954 326.02205475 -315.66772461 320.67810059 C-311.12137014 316.15155022 -306.57711925 311.62290739 -302.0355835 307.09152222 C-299.91787095 304.98024075 -297.79714452 302.87201992 -295.67626953 300.76391602 C-290.23809165 295.34622459 -284.85593992 289.96531704 -279.88549805 284.11035156 C-275.53313497 279.23895101 -270.8096837 274.70423077 -266.17689514 270.10173035 C-264.18088476 268.11862966 -262.18814294 266.13229426 -260.19616699 264.1451416 C-255.25100049 259.21325572 -250.30037531 254.28686113 -245.34991455 249.36029053 C-241.15585394 245.18604645 -236.96390637 241.00970144 -232.77467346 236.83061218 C-230.82315749 234.88551955 -228.86862615 232.94349334 -226.91394043 231.00158691 C-218.97446483 223.11075565 -218.97446483 223.11075565 -211.53503418 214.75158691 C-209.46354943 212.38787044 -207.23550012 210.20922856 -205 208 C-203.97954639 206.98284212 -202.95964921 205.96512581 -201.94021606 204.94694519 C-200.78844768 203.79819168 -199.63666244 202.64945507 -198.48486328 201.50073242 C-192.03306204 195.06529746 -185.5838289 188.62729512 -179.13603401 182.18784618 C-175.24256798 178.29959966 -171.34817179 174.41229425 -167.45166016 170.52709961 C-163.67004497 166.75639323 -159.89091721 162.98320996 -156.11346054 159.20833778 C-154.67993461 157.77664926 -153.24553375 156.3458362 -151.810215 154.91594505 C-149.79575219 152.90880099 -147.78450148 150.89848798 -145.77392578 148.88745117 C-145.18979919 148.30691986 -144.60567261 147.72638855 -144.00384521 147.12826538 C-141.06266214 144.17983304 -138.2453682 141.17060043 -135.52096558 138.01997375 C-132.13500676 134.10806639 -128.56316107 130.4348226 -124.890625 126.79296875 C-124.21809692 126.12190094 -123.54556885 125.45083313 -122.85266113 124.75942993 C-121.40627216 123.3168177 -119.95873019 121.87536071 -118.51013184 120.43496704 C-116.21169248 118.14940713 -113.91649291 115.86063672 -111.62207031 113.57104492 C-105.925614 107.88788781 -100.22370741 102.21020913 -94.52197266 96.53234863 C-89.69378244 91.7239539 -84.86768926 86.91347257 -80.04431152 82.10025024 C-77.79364201 79.8560172 -75.53995969 77.61484077 -73.28613281 75.3737793 C-71.8937308 73.98501306 -70.50147082 72.5961044 -69.109375 71.20703125 C-68.49098755 70.59381012 -67.8726001 69.98058899 -67.23547363 69.3487854 C-63.52163013 65.63538678 -60.02461622 61.78875782 -56.59020996 57.8160553 C-54.6297038 55.57711347 -52.57279055 53.45954601 -50.4609375 51.36328125 C-49.64318848 50.54883545 -48.82543945 49.73438965 -47.98291016 48.89526367 C-46.69199463 47.61679565 -46.69199463 47.61679565 -45.375 46.3125 C-44.46927246 45.41055908 -43.56354492 44.50861816 -42.63037109 43.5793457 C-39.27078694 40.23394556 -35.90668738 36.89311608 -32.54223633 33.5526123 C-29.23365649 30.267082 -25.92897519 26.97766209 -22.625 23.6875 C-21.33408447 22.40903198 -21.33408447 22.40903198 -20.01708984 21.10473633 C-15.68170597 16.78686484 -11.49500377 12.41183273 -7.52856445 7.7512207 C-5.15162987 5.0280532 -2.58649933 2.52341398 0 0 Z " fill="currentColor" fill-opacity="0.22" transform="translate(444,628)"/>
<path d="M0 0 C3.03683097 1.44870231 5.05765404 2.85915956 7.375 5.3125 C9.52249055 7.53309661 11.59121826 9.48036484 14 11.4375 C16.27342321 13.37938233 17.95196084 15.04667942 19.83460999 17.3001709 C25.44038062 23.76935428 31.58818071 29.71909167 37.64624023 35.75976562 C39.02678052 37.14002347 40.40709991 38.52050228 41.78721619 39.90118408 C45.51585242 43.63010607 49.2475538 47.35594668 52.9798305 51.08122444 C56.88671218 54.98183553 60.7907436 58.88529728 64.69508362 62.78845215 C72.08061602 70.17088214 79.46869283 77.55076028 86.85769659 84.92971563 C95.2732229 93.33404692 103.68589443 101.74123335 112.09833229 110.14865589 C129.39572283 127.43560674 146.69667937 144.71898499 164 162 C163.06554673 163.28442517 162.12568741 164.56491832 161.18359375 165.84375 C160.66079834 166.55724609 160.13800293 167.27074219 159.59936523 168.00585938 C157.39446025 170.75500667 154.72502216 172.77549211 152 175 C151.05947575 176.05679447 150.14137336 177.1337003 149.23828125 178.22265625 C143.89737777 184.39805412 138.0380589 190.07195383 132.25091553 195.82424927 C130.08688959 197.97538337 127.92611522 200.12973789 125.76611328 202.28491211 C120.40356327 207.63417053 115.03555954 212.97794525 109.66772461 218.32189941 C105.12137014 222.84844978 100.57711925 227.37709261 96.0355835 231.90847778 C93.91787095 234.01975925 91.79714452 236.12798008 89.67626953 238.23608398 C81.2069254 246.64205045 81.2069254 246.64205045 73.26045227 255.53825378 C71.41571756 257.67759222 69.34085479 259.49101075 67.1875 261.3125 C64.59626974 263.51125477 62.90470561 265.14294158 61 268 C58 267 58 267 56.9284668 265.42797852 C56.60531494 264.75178467 56.28216309 264.07559082 55.94921875 263.37890625 C55.58344727 262.61811768 55.21767578 261.8573291 54.84082031 261.07348633 C54.46022461 260.24486084 54.07962891 259.41623535 53.6875 258.5625 C53.29014648 257.70358154 52.89279297 256.84466309 52.48339844 255.9597168 C41.91755571 232.63144826 36.79828039 207.84280742 36.86962891 182.2890625 C36.87498794 180.00514081 36.86965816 177.72141572 36.86328125 175.4375 C36.86003429 168.21985981 37.05503962 161.16594955 38 154 C38.98058094 142.63747769 38.98058094 142.63747769 34.49609375 132.578125 C30.67562075 128.54817436 26.47652066 124.31387732 20.70877075 123.7931366 C19.86660004 123.81265884 19.02442932 123.83218109 18.15673828 123.85229492 C17.19174408 123.86835785 16.22674988 123.88442078 15.23251343 123.90097046 C13.66722397 123.94032211 13.66722397 123.94032211 12.0703125 123.98046875 C9.82131223 124.01497224 7.57228686 124.04786893 5.32324219 124.0793457 C4.14677124 124.09808746 2.97030029 124.11682922 1.75817871 124.13613892 C-19.3684204 124.43479888 -39.41420013 124.1331287 -60 119 C-60.86286621 118.78649902 -61.72573242 118.57299805 -62.61474609 118.35302734 C-67.4887253 117.10341474 -72.23658224 115.61804984 -77 114 C-78.34427692 113.56918829 -79.68934543 113.14083954 -81.03515625 112.71484375 C-87.88623812 110.52259762 -94.49628439 108.0807074 -101 105 C-99.57925676 101.754387 -97.86237319 99.6373841 -95.33203125 97.171875 C-94.60306641 96.45386719 -93.87410156 95.73585938 -93.12304688 94.99609375 C-92.36056641 94.25488281 -91.59808594 93.51367188 -90.8125 92.75 C-89.31649622 91.2890284 -87.82298431 89.82550062 -86.33203125 88.359375 C-85.33780151 87.39209473 -85.33780151 87.39209473 -84.32348633 86.40527344 C-82.4382007 84.45362544 -80.67620388 82.47375242 -78.9128418 80.41503906 C-74.69264837 75.55854457 -70.15039915 71.03682235 -65.58444214 66.50927734 C-64.02526273 64.9630726 -62.46941379 63.41358104 -60.91430664 61.86328125 C-57.05434197 58.01655775 -53.18890098 54.17535284 -49.3236084 50.33398438 C-46.04550558 47.07574304 -42.76955008 43.8153701 -39.49630737 40.55224609 C-37.97690534 39.03923948 -36.45448297 37.5293203 -34.93188477 36.01953125 C-30.27785008 31.38985122 -25.76075431 26.70287761 -21.48898315 21.71606445 C-19.40924734 19.31915304 -17.19207239 17.0797059 -14.94140625 14.84375 C-14.06162109 13.9671875 -13.18183594 13.090625 -12.27539062 12.1875 C-11.38013672 11.300625 -10.48488281 10.41375 -9.5625 9.5 C-8.64017578 8.5821875 -7.71785156 7.664375 -6.76757812 6.71875 C-4.51400101 4.47684945 -2.25810925 2.237334 0 0 Z " fill="currentColor" fill-opacity="0.22" transform="translate(627,442)"/>
<path d="M0 0 C0.46470703 0.39977051 0.92941406 0.79954102 1.40820312 1.21142578 C2.02630859 1.7423584 2.64441406 2.27329102 3.28125 2.8203125 C3.89033203 3.34383301 4.49941406 3.86735352 5.12695312 4.40673828 C6.90199704 5.91663617 8.69703024 7.39866303 10.5 8.875 C12.99622867 11.0067351 15.13449684 13.24161768 17.25 15.75 C20.11082576 19.12628986 23.19552502 22.05666983 26.5 25 C30.42826753 28.49953438 33.92059742 32.08179814 37.296875 36.10546875 C40.24510432 39.38503577 43.61362532 42.18535091 47 45 C45.38970584 49.09893059 42.42181788 51.76203985 39.3125 54.75 C35.30586007 58.67127876 31.49217269 62.64073938 27.86328125 66.91796875 C24.93237421 70.19296551 21.78841152 73.2532217 18.64233398 76.32055664 C15.97990421 78.89926702 15.97990421 78.89926702 14 82 C13.34 82 12.68 82 12 82 C11.74114014 82.58555664 11.48228027 83.17111328 11.21557617 83.77441406 C9.90778276 86.1688396 8.50263899 87.71093329 6.55078125 89.609375 C5.86693359 90.28226562 5.18308594 90.95515625 4.47851562 91.6484375 C3.76373047 92.34195313 3.04894531 93.03546875 2.3125 93.75 C-2.43976286 98.38334618 -6.99906281 103.0695688 -11.32739258 108.10253906 C-14.40990068 111.59943776 -17.77079511 114.81286822 -21.10546875 118.06640625 C-23.98892824 120.90797528 -26.73404328 123.80545373 -29.375 126.875 C-33.86917081 132.07589534 -38.78266714 136.83127775 -43.68359375 141.64453125 C-47.74873063 145.66556176 -51.60520412 149.7774201 -55.33398438 154.11132812 C-57.92199059 157.0452109 -60.70305294 159.76717601 -63.5 162.5 C-67.5787296 166.52790431 -71.48574746 170.60259775 -75.1953125 174.9765625 C-77.97991803 178.09869597 -80.98131493 181.001659 -83.95800781 183.93847656 C-86.54218252 186.50139692 -89.02118471 189.09960585 -91.375 191.875 C-94.5612939 195.61543197 -98.00879685 199.04804038 -101.5 202.5 C-105.5546517 206.50912579 -109.43978152 210.55864504 -113.12890625 214.91015625 C-116.14012828 218.27342094 -119.38274129 221.40256368 -122.59350586 224.57397461 C-125.97097202 227.92598648 -129.14256474 231.38223464 -132.2265625 235.0078125 C-135.19449915 238.34183825 -138.41555269 241.42260485 -141.58984375 244.55859375 C-144.26854532 247.27202727 -146.74608118 250.10777023 -149.22265625 253.00390625 C-151.94855159 256.0652964 -154.89141358 258.89965164 -157.80859375 261.77734375 C-160.41335692 264.4192515 -162.81945253 267.19416115 -165.23046875 270.01171875 C-167.82068072 272.92213353 -170.60156088 275.6254509 -173.3984375 278.3359375 C-175.08628724 279.92422733 -175.08628724 279.92422733 -176 282 C-176.66 282 -177.32 282 -178 282 C-179.375 280.6015625 -179.375 280.6015625 -181 278.625 C-186.37773821 272.30419288 -192.13897447 266.19802046 -198.625 261 C-199.40875 260.34 -200.1925 259.68 -201 259 C-201 258.34 -201 257.68 -201 257 C-201.66 257 -202.32 257 -203 257 C-204.71230248 255.38025441 -206.37163262 253.7041054 -208 252 C-209.3921875 250.6696875 -209.3921875 250.6696875 -210.8125 249.3125 C-213 247 -213 247 -213 245 C-213.56203125 244.76539063 -214.1240625 244.53078125 -214.703125 244.2890625 C-217.54635891 242.69337 -219.48098127 240.71075457 -221.75 238.375 C-222.94882812 237.14910156 -222.94882812 237.14910156 -224.171875 235.8984375 C-224.77515625 235.27195312 -225.3784375 234.64546875 -226 234 C-224.34324716 229.65234288 -221.09008562 226.90564614 -217.8125 223.75 C-214.34860058 220.3952316 -210.98407796 217.03221491 -207.85546875 213.359375 C-202.22588517 206.83472756 -195.95178767 200.89729187 -189.82470703 194.84521484 C-182.44933819 187.6240675 -182.44933819 187.6240675 -175.5 180 C-170.02282958 173.57318587 -163.82819858 167.77521568 -157.82470703 161.84521484 C-150.44933819 154.6240675 -150.44933819 154.6240675 -143.5 147 C-138.02282958 140.57318587 -131.82819858 134.77521568 -125.82470703 128.84521484 C-124.1830727 127.22187975 -122.54461981 125.5953788 -120.90625 123.96875 C-120.4174939 123.48829224 -119.92873779 123.00783447 -119.4251709 122.51281738 C-116.70062906 119.80712732 -114.12348656 117.02279823 -111.61376953 114.1159668 C-108.00678981 109.95289511 -104.18211952 106.054354 -100.2734375 102.17578125 C-99.56273102 101.46648972 -98.85202454 100.75719818 -98.11978149 100.02641296 C-95.87388523 97.78605515 -93.62452373 95.54921488 -91.375 93.3125 C-89.85914163 91.8016664 -88.34351466 90.2906006 -86.828125 88.77929688 C-84.04879046 86.00808368 -81.26814884 83.23819745 -78.48583984 80.4699707 C-77.88472382 79.87118103 -77.28360779 79.27239136 -76.66427612 78.65545654 C-75.20708992 77.20599248 -73.74550693 75.76095136 -72.28320312 74.31665039 C-70.1071275 72.10869684 -68.05085789 69.83865299 -66.0078125 67.5078125 C-60.21950433 61.03880888 -54.0471916 54.9736923 -47.875 48.875 C-39.48848366 40.7223902 -39.48848366 40.7223902 -31.59765625 32.1015625 C-25.99993954 25.52665818 -19.68395993 19.58076792 -13.5625 13.5 C-12.24520941 12.18773415 -10.92815014 10.87523605 -9.61132812 9.5625 C-6.4102139 6.37231494 -3.20598135 3.18529349 0 0 Z " fill="currentColor" fill-opacity="0.22" transform="translate(979,202)"/>
<path d="M0 0 C0.88464432 0.41273163 1.76928864 0.82546326 2.68074036 1.2507019 C3.84546371 1.79171539 5.01018707 2.33272888 6.21020508 2.89013672 C7.3629744 3.42661835 8.51574371 3.96309998 9.70344543 4.51583862 C13.635167 6.2859623 17.59867882 7.76874724 21.6875 9.125 C23.04635404 9.58362962 24.40442098 10.04459744 25.76171875 10.5078125 C26.44758057 10.74161621 27.13344238 10.97541992 27.84008789 11.21630859 C30.17217326 12.06247046 32.44113458 13.01964635 34.7265625 13.984375 C40.57095997 16.34587213 46.54751942 17.7508658 52.6875 19.125 C53.75677734 19.37636719 54.82605469 19.62773438 55.92773438 19.88671875 C73.73847359 23.94863062 90.74541632 24.25106138 108.9375 24.125 C111.47069958 24.11494955 114.00390303 24.10582736 116.53710938 24.09765625 C122.69149167 24.07580786 128.84572741 24.0424941 135 24 C135.08792747 34.33352585 135.08792747 34.33352585 134.515625 39.296875 C130.44977091 80.38795356 139.18098937 124.48785476 160.2890625 160.1796875 C161.23875243 162.61131117 160.90445165 163.55654404 160 166 C158.22167969 168.11889648 158.22167969 168.11889648 155.921875 170.37109375 C155.09042969 171.19287109 154.25898437 172.01464844 153.40234375 172.86132812 C152.52707031 173.71146484 151.65179687 174.56160156 150.75 175.4375 C149.89019531 176.28376953 149.03039062 177.13003906 148.14453125 178.00195312 C145.76812416 180.33991295 143.38478254 182.67059 141 185 C138.20933604 187.73764472 135.49936194 190.48940494 133 193.5 C130.49783953 196.51396603 127.78596262 199.24619856 125 202 C123.9615752 203.03709561 122.92384094 204.074883 121.88671875 205.11328125 C118.92447917 208.07552083 115.96223958 211.03776042 113 214 C109.1849935 212.72833117 108.81743012 211.50151618 107 208 C106.28733993 206.24717064 105.62081313 204.47492446 105 202.6875 C103.91560684 199.59246119 102.8129069 196.52913162 101.6015625 193.48046875 C99.40944453 187.66308399 97.94519666 181.63299823 96.375 175.625 C95.759714 173.28335371 95.14262059 170.94218133 94.5234375 168.6015625 C94.25450684 167.57369629 93.98557617 166.54583008 93.70849609 165.48681641 C93.0906192 163.02704857 93.0906192 163.02704857 92 161 C90.0430545 149.90552008 89.71099487 138.91635786 89.79418945 127.6796875 C89.81263137 125.10667104 89.81469688 122.53401378 89.81445312 119.9609375 C89.83061052 112.56886455 89.88618955 105.2560241 90.77075195 97.90673828 C91.7939081 89.39678143 91.82630374 80.35173832 86.5 73.25 C82.57001552 69.17030182 78.57629584 67.04335245 73 66 C68.83253139 65.98170156 64.73844265 66.29315875 60.5859375 66.61328125 C23.44240389 69.37754643 -10.97217038 63.05292573 -45 48 C-45 45 -45 45 -43.29162598 42.93086243 C-42.09249573 41.74172493 -42.09249573 41.74172493 -40.86914062 40.52856445 C-39.96820679 39.62785721 -39.06727295 38.72714996 -38.13903809 37.79914856 C-37.14493379 36.82036521 -36.15066723 35.84174666 -35.15625 34.86328125 C-34.14668703 33.85931288 -33.13778395 32.85468054 -32.1295166 31.84941101 C-29.47281258 29.20416642 -26.80722301 26.56805356 -24.13970947 23.93371582 C-21.41976746 21.24445099 -18.70828857 18.54668329 -15.99609375 15.84960938 C-10.67232866 10.5580278 -5.33915199 5.27606072 0 0 Z " fill="currentColor" fill-opacity="0.22" transform="translate(508,564)"/>
<path d="M0 0 C0.5671875 0.45761719 1.134375 0.91523438 1.71875 1.38671875 C2.35296875 1.86109375 2.9871875 2.33546875 3.640625 2.82421875 C4.24390625 3.33984375 4.8471875 3.85546875 5.46875 4.38671875 C6.38914062 5.16015625 6.38914062 5.16015625 7.328125 5.94921875 C8.71875 7.38671875 8.71875 7.38671875 8.71875 9.38671875 C9.57777168 9.76120148 9.57777168 9.76120148 10.45414734 10.14324951 C13.04781407 11.56740433 14.83577012 13.21444708 16.95239258 15.28222656 C18.18805717 16.48422699 18.18805717 16.48422699 19.44868469 17.71051025 C20.32800156 18.57819031 21.20731842 19.44587036 22.11328125 20.33984375 C23.02003098 21.23282166 23.9267807 22.12579956 24.86100769 23.0458374 C26.77448973 24.93605306 28.68513559 26.82877504 30.5925293 28.72509766 C33.03675498 31.15272712 35.50122225 33.55867588 37.97092152 35.96034622 C40.3251697 38.25908942 42.65496834 40.58238267 44.98828125 42.90234375 C45.87771927 43.76192688 46.76715729 44.62151001 47.68354797 45.50714111 C48.49156357 46.32108337 49.29957916 47.13502563 50.13208008 47.97363281 C50.85059647 48.68263733 51.56911285 49.39164185 52.30940247 50.12213135 C53.71875 52.38671875 53.71875 52.38671875 53.51078796 55.47674561 C52.66351977 58.58963639 51.58587923 61.47187263 50.34375 64.44921875 C44.66613227 79.08631418 44.06328716 92.81782699 43.71875 108.38671875 C38.0352711 103.65800389 32.79032637 98.60048531 27.57055664 93.36791992 C26.68195953 92.48107513 25.79336243 91.59423035 24.87783813 90.68051147 C22.46115621 88.26745638 20.04671962 85.85219922 17.63344502 83.43573928 C15.10319726 80.90294703 12.57049623 78.37260978 10.03819275 75.84187317 C5.79408968 71.59958372 1.55208733 67.35520229 -2.6887207 63.10961914 C-7.5965167 58.19636101 -12.50793317 53.28674405 -17.42120451 48.37896174 C-21.64395605 44.16073931 -25.86476702 39.94058254 -30.08394343 35.71878415 C-32.60238662 33.19877977 -35.12150592 30.67946124 -37.64237785 28.16188622 C-40.44405035 25.36362315 -43.24164789 22.56130864 -46.03881836 19.75854492 C-46.87873825 18.92064926 -47.71865814 18.0827536 -48.58403015 17.21946716 C-49.33960205 16.46107544 -50.09517395 15.70268372 -50.87364197 14.92131042 C-51.53561553 14.25895984 -52.19758909 13.59660925 -52.87962246 12.91418743 C-54.28125 11.38671875 -54.28125 11.38671875 -54.28125 10.38671875 C-52.610625 10.33064453 -52.610625 10.33064453 -50.90625 10.2734375 C-35.77927533 9.6687594 -22.1512569 7.72912468 -8.21875 1.54833984 C-2.83169877 -0.76126148 -2.83169877 -0.76126148 0 0 Z " fill="currentColor" fill-opacity="0.22" transform="translate(734.28125,449.61328125)"/>
<path d="M0 0 C3.88163524 1.59709322 6.37064313 4.09795751 9.33520508 7.02880859 C9.85433472 7.53961472 10.37346436 8.05042084 10.9083252 8.57670593 C12.61752061 10.26186176 14.31901145 11.95453006 16.01953125 13.6484375 C17.20440677 14.82434646 18.38935964 16.00017748 19.5743866 17.17593384 C22.05356468 19.63863891 24.52832984 22.10568925 27.00073242 24.57519531 C30.1746513 27.74371325 33.36443304 30.89573662 36.55835438 34.0440731 C39.00908584 36.46512531 41.44854951 38.89729093 43.88498497 41.33272171 C45.05672878 42.50024983 46.23260864 43.66364181 47.41260719 44.82282639 C49.05767445 46.44115221 50.68632343 48.07440124 52.31176758 49.71240234 C53.24346268 50.63902679 54.17515778 51.56565125 55.13508606 52.52035522 C57 55 57 55 56.92533875 57.17785645 C55.48354794 60.01697869 53.39731849 61.91561221 51.125 64.1328125 C50.39821045 64.84967728 50.39821045 64.84967728 49.65673828 65.58102417 C48.11144167 67.10296093 46.55633236 68.61435724 45 70.125 C43.4454518 71.64447959 41.89306623 73.16608158 40.34326172 74.69039917 C38.9387598 76.07017518 37.52811425 77.44368909 36.1171875 78.81689453 C33.96721878 80.81418725 33.96721878 80.81418725 33 83 C29.15029143 81.43160021 26.88254622 78.94472991 24 76 C22.33846116 74.36146419 20.67512772 72.72474672 19.01025391 71.08959961 C14.25028701 66.41088429 9.5026941 61.71982835 4.76226234 57.0213232 C1.90056202 54.18584472 -0.96568965 51.35528453 -3.84228516 48.53491211 C-6.6340521 45.79733958 -9.41354195 43.04784553 -12.18483353 40.28955269 C-13.24188057 39.24175131 -14.30332216 38.19836432 -15.36915207 37.15949821 C-16.8534309 35.71135346 -18.32147927 34.24847326 -19.78662109 32.78100586 C-20.62647552 31.95225449 -21.46632996 31.12350311 -22.33163452 30.26963806 C-24 28 -24 28 -23.8956604 25.85380554 C-22.50262949 22.9705605 -20.40884242 21.09563219 -18.125 18.8671875 C-17.64047363 18.38927765 -17.15594727 17.9113678 -16.65673828 17.41897583 C-15.11144167 15.89703907 -13.55633236 14.38564276 -12 12.875 C-10.4454518 11.35552041 -8.89306623 9.83391842 -7.34326172 8.30960083 C-5.9387598 6.92982482 -4.52811425 5.55631091 -3.1171875 4.18310547 C-0.96721878 2.18581275 -0.96721878 2.18581275 0 0 Z " fill="currentColor" fill-opacity="0.22" transform="translate(1015,153)"/>
<path d="M0 0 C0 3 0 3 0 3 Z M-5 5 C-4.34 5.33 -3.68 5.66 -3 6 C-4.32 6.99 -5.64 7.98 -7 9 C-6.34 7.68 -5.68 6.36 -5 5 Z M-8 9 C-8 12 -8 12 -9.50390625 13.76171875 C-10.18324219 14.39722656 -10.86257813 15.03273438 -11.5625 15.6875 C-14.30366 18.31843853 -16.87643508 20.95999999 -19.3125 23.875 C-22.99099129 28.16234502 -27.12987461 31.86159367 -31.3515625 35.60546875 C-33.99243277 37.99315825 -36.49004416 40.47525429 -39 43 C-47 51 -55 59 -63 67 C-63.66 66.67 -64.32 66.34 -65 66 C-46.19 47.19 -27.38 28.38 -8 9 Z " fill="currentColor" transform="translate(321,1080)"/>
<path d="M0 0 C0.66 0.66 1.32 1.32 2 2 C-5.11512415 9.27765237 -5.11512415 9.27765237 -9.0625 12.5 C-11.42357259 14.50942348 -13.22570253 16.35705031 -15.203125 18.703125 C-18.78882848 22.8445585 -22.64915077 26.55594085 -26.6875 30.25 C-33.62858784 36.67245417 -40.37051563 43.25751306 -47 50 C-47.66 49.67 -48.32 49.34 -49 49 C-32.83 32.83 -16.66 16.66 0 0 Z " fill="currentColor" transform="translate(286,756)"/>
<path d="M0 0 C0.495 1.485 0.495 1.485 1 3 C0.4942041 3.4343335 -0.0115918 3.86866699 -0.53271484 4.31616211 C-9.98835894 12.62417927 -18.75218209 21.64356919 -27.625 30.5625 C-29.31356813 32.25609267 -31.00236828 33.94945404 -32.69140625 35.64257812 C-36.79695124 39.75905429 -40.89961681 43.87838253 -45 48 C-45.66 47.67 -46.32 47.34 -47 47 C-31.49 31.49 -15.98 15.98 0 0 Z " fill="currentColor" transform="translate(518,881)"/>
<path d="M0 0 C0.66 0.33 1.32 0.66 2 1 C0.83371639 4.49885083 -0.33291847 4.90378874 -3.33203125 6.77734375 C-5.74271655 8.54442689 -7.42499694 10.75822888 -9.29956055 13.06713867 C-10.97055378 14.96652898 -12.69939811 16.5439989 -14.6328125 18.171875 C-19.31337337 22.2100796 -23.65523576 26.54379127 -28 30.9375 C-29.16208984 32.10635742 -29.16208984 32.10635742 -30.34765625 33.29882812 C-32.23410757 35.1969242 -34.11816245 37.09733149 -36 39 C-36.66 38.67 -37.32 38.34 -38 38 C-25.46 25.46 -12.92 12.92 0 0 Z " fill="currentColor" transform="translate(206,837)"/>
<path d="M0 0 C0 3 0 3 -2.01171875 5.26953125 C-2.89472656 6.10871094 -3.77773438 6.94789063 -4.6875 7.8125 C-8.85548278 11.81895624 -8.85548278 11.81895624 -12.625 16.1875 C-14.50206712 18.41034265 -16.18200436 20.0818883 -18.375 21.9375 C-25.32485244 27.84084956 -31.59787028 34.51659325 -38 41 C-38.66 40.67 -39.32 40.34 -40 40 C-26.8 26.8 -13.6 13.6 0 0 Z " fill="currentColor" fill-opacity="0.22" transform="translate(602,829)"/>
<path d="M0 0 C0.66 0.66 1.32 1.32 2 2 C0.60026042 3.13932292 -0.79947917 4.27864583 -2.19921875 5.41796875 C-4.57643694 7.50641423 -6.76813395 9.75685376 -9 12 C-16 19 -23 26 -30 33 C-30.66 32.67 -31.32 32.34 -32 32 C-21.44 21.44 -10.88 10.88 0 0 Z " fill="currentColor" fill-opacity="0.22" transform="translate(210,866)"/>
<path d="M0 0 C0 4.91964248 -3.68787598 7.60394301 -7 11 C-8.75896629 12.59906027 -10.5550827 14.12967482 -12.38671875 15.64453125 C-14.74024052 17.62194543 -16.85347243 19.8011181 -19 22 C-20.43615466 23.43884409 -21.87373848 24.87626263 -23.3125 26.3125 C-24.00988281 27.00988281 -24.70726562 27.70726562 -25.42578125 28.42578125 C-26.20501953 29.20501953 -26.20501953 29.20501953 -27 30 C-27.66 29.67 -28.32 29.34 -29 29 C-19.43 19.43 -9.86 9.86 0 0 Z " fill="currentColor" fill-opacity="0.22" transform="translate(596,474)"/>
<path d="M0 0 C0.66 0.33 1.32 0.66 2 1 C1.3503125 1.5878125 1.3503125 1.5878125 0.6875 2.1875 C-1.10227699 3.95756533 -1.10227699 3.95756533 -2.25 6.3125 C-4.25938423 9.39834007 -6.54445485 11.35773847 -9.37890625 13.66796875 C-11.11695065 15.0520053 -11.11695065 15.0520053 -13 17 C-13 13 -13 13 -11.80664062 11.35253906 C-11.26201172 10.82885742 -10.71738281 10.30517578 -10.15625 9.765625 C-9.56972656 9.19199219 -8.98320313 8.61835938 -8.37890625 8.02734375 C-7.75886719 7.44082031 -7.13882813 6.85429687 -6.5 6.25 C-5.87996094 5.64800781 -5.25992188 5.04601562 -4.62109375 4.42578125 C-3.08955179 2.94136366 -1.54590226 1.46945655 0 0 Z M-15 16 C-14.67 16.99 -14.34 17.98 -14 19 C-15.32 19.99 -16.64 20.98 -18 22 C-18 19 -18 19 -16.5 17.3125 C-15.7575 16.6628125 -15.7575 16.6628125 -15 16 Z " fill="currentColor" fill-opacity="0.22" transform="translate(991,318)"/>
<path d="M0 0 C0.66 0.99 1.32 1.98 2 3 C1.56429688 3.42410156 1.12859375 3.84820312 0.6796875 4.28515625 C-2.33645862 7.25560318 -5.24601904 10.23018428 -7.9375 13.5 C-10.73017607 16.83319401 -13.8494866 19.62047389 -17.16796875 22.421875 C-18.86190951 23.88104785 -20.44164484 25.39822318 -22 27 C-22.66 26.67 -23.32 26.34 -24 26 C-23.30849854 25.31897217 -22.61699707 24.63794434 -21.90454102 23.9362793 C-19.34072078 21.4086547 -16.78352153 18.87442051 -14.22827148 16.33813477 C-13.12134446 15.24126629 -12.01262917 14.14619943 -10.90209961 13.05297852 C-9.30629675 11.48143015 -7.71703377 9.90351836 -6.12890625 8.32421875 C-5.63097061 7.83660568 -5.13303497 7.34899261 -4.62001038 6.84660339 C-2.33350057 4.56084381 -1.03907628 3.11722883 0 0 Z " fill="currentColor" transform="translate(1072,208)"/>
<path d="M0 0 C0.66 0.33 1.32 0.66 2 1 C0.71520959 2.50589388 -0.57804082 4.00457375 -1.875 5.5 C-2.59429688 6.3353125 -3.31359375 7.170625 -4.0546875 8.03125 C-4.69664062 8.6809375 -5.33859375 9.330625 -6 10 C-6.66 10 -7.32 10 -8 10 C-8.268125 10.61875 -8.53625 11.2375 -8.8125 11.875 C-10 14 -10 14 -13 16 C-13 13 -13 13 -11.80664062 11.46606445 C-11.26201172 10.937146 -10.71738281 10.40822754 -10.15625 9.86328125 C-9.56972656 9.28642578 -8.98320313 8.70957031 -8.37890625 8.11523438 C-7.75886719 7.52033203 -7.13882813 6.92542969 -6.5 6.3125 C-5.87996094 5.70599609 -5.25992188 5.09949219 -4.62109375 4.47460938 C-3.08735293 2.97626257 -1.54451802 1.48723507 0 0 Z " fill="currentColor" fill-opacity="0.22" transform="translate(673,757)"/>
<path d="M0 0 C0.66 0.66 1.32 1.32 2 2 C-3.61 7.61 -9.22 13.22 -15 19 C-15.66 18.67 -16.32 18.34 -17 18 C-16.5560791 17.56131592 -16.1121582 17.12263184 -15.65478516 16.6706543 C-13.64222971 14.67890386 -11.6335838 12.68325526 -9.625 10.6875 C-8.92632812 9.99720703 -8.22765625 9.30691406 -7.5078125 8.59570312 C-6.8375 7.92861328 -6.1671875 7.26152344 -5.4765625 6.57421875 C-4.85861816 5.96151123 -4.24067383 5.34880371 -3.60400391 4.7175293 C-1.80710653 2.88670835 -1.80710653 2.88670835 0 0 Z " fill="currentColor" fill-opacity="0.22" transform="translate(442,990)"/>
<path d="M0 0 C0.66 0.33 1.32 0.66 2 1 C-2.32893185 6.18419194 -6.76564995 10.72706118 -12 15 C-12.66 14.67 -13.32 14.34 -14 14 C-9.38 9.38 -4.76 4.76 0 0 Z " fill="currentColor" transform="translate(1009,127)"/>
<path d="M0 0 C0.33 0.99 0.66 1.98 1 3 C-4.94 8.445 -4.94 8.445 -11 14 C-11 11 -11 11 -8.59375 8.30078125 C-7.5700032 7.29697757 -6.5383946 6.30114351 -5.5 5.3125 C-4.97535156 4.80138672 -4.45070313 4.29027344 -3.91015625 3.76367188 C-2.61339096 2.50227292 -1.30753883 1.25022788 0 0 Z " fill="currentColor" transform="translate(976,161)"/>
<path d="M0 0 C0 4.15560231 -2.2820452 5.84099329 -5 8.6875 C-5.47695313 9.19861328 -5.95390625 9.70972656 -6.4453125 10.23632812 C-7.62359915 11.49709484 -8.81095253 12.74937686 -10 14 C-10.66 13.34 -11.32 12.68 -12 12 C-8.04 8.04 -4.08 4.08 0 0 Z " fill="currentColor" transform="translate(535,503)"/>
<path d="M0 0 C0.66 0.66 1.32 1.32 2 2 C-0.97 4.97 -3.94 7.94 -7 11 C-7.66 10.34 -8.32 9.68 -9 9 C-6.03 6.03 -3.06 3.06 0 0 Z " fill="currentColor" transform="translate(631,767)"/>
<path d="M0 0 C5.28 0 10.56 0 16 0 C16 0.33 16 0.66 16 1 C12.7 1.33 9.4 1.66 6 2 C5.67 2.99 5.34 3.98 5 5 C3.35 3.35 1.7 1.7 0 0 Z " fill="currentColor" fill-opacity="0.22" transform="translate(680,460)"/>
<path d="M0 0 C0.33 0.99 0.66 1.98 1 3 C-1.64 5.31 -4.28 7.62 -7 10 C-7.66 9.67 -8.32 9.34 -9 9 C-6.03 6.03 -3.06 3.06 0 0 Z " fill="currentColor" fill-opacity="0.22" transform="translate(942,240)"/>
<path d="M0 0 C0.33 0.99 0.66 1.98 1 3 C-2.3 5.97 -5.6 8.94 -9 12 C-9.66 11.67 -10.32 11.34 -11 11 C-7.37 7.37 -3.74 3.74 0 0 Z " fill="currentColor" transform="translate(518,881)"/>
<path d="M0 0 C0.66 0.99 1.32 1.98 2 3 C1.67 3.33 1.34 3.66 1 4 C0.76298761 6.85877909 0.57780818 9.69883297 0.4375 12.5625 C0.39431641 13.36880859 0.35113281 14.17511719 0.30664062 15.00585938 C0.20024738 17.00368805 0.09959112 19.0018207 0 21 C-0.33 21 -0.66 21 -1 21 C-1.02895976 17.87501937 -1.04678483 14.7500731 -1.0625 11.625 C-1.07087891 10.73554687 -1.07925781 9.84609375 -1.08789062 8.9296875 C-1.09111328 8.07890625 -1.09433594 7.228125 -1.09765625 6.3515625 C-1.10289307 5.56604004 -1.10812988 4.78051758 -1.11352539 3.97119141 C-1 2 -1 2 0 0 Z " fill="currentColor" transform="translate(65,983)"/>
<path d="M0 0 C-1.38188453 3.21043882 -2.92421903 5.04936365 -5.625 7.25 C-6.57246094 8.03117188 -6.57246094 8.03117188 -7.5390625 8.828125 C-8.02117187 9.21484375 -8.50328125 9.6015625 -9 10 C-9.66 9.67 -10.32 9.34 -11 9 C-9.54782324 7.49403892 -8.08807139 5.99537896 -6.625 4.5 C-5.40683594 3.24703125 -5.40683594 3.24703125 -4.1640625 1.96875 C-2 0 -2 0 0 0 Z " fill="currentColor" transform="translate(265,779)"/>
<path d="M0 0 C0.33 0.99 0.66 1.98 1 3 C0.01 3.33 -0.98 3.66 -2 4 C-2.33 4.99 -2.66 5.98 -3 7 C-5.0625 8.6875 -5.0625 8.6875 -7 10 C-7.66 9.67 -8.32 9.34 -9 9 C-6.03 6.03 -3.06 3.06 0 0 Z " fill="currentColor" fill-opacity="0.22" transform="translate(1008,161)"/>
<path d="M0 0 C0.99 0.33 1.98 0.66 3 1 C1.02 3.31 -0.96 5.62 -3 8 C-3.66 7.34 -4.32 6.68 -5 6 C-3.625 4 -3.625 4 -2 2 C-1.34 2 -0.68 2 0 2 C0 1.34 0 0.68 0 0 Z " fill="currentColor" fill-opacity="0.22" transform="translate(554,479)"/>
<path d="M0 0 C0.99 0.33 1.98 0.66 3 1 C1.35 2.98 -0.3 4.96 -2 7 C-2.66 6.67 -3.32 6.34 -4 6 C-4 5.34 -4 4.68 -4 4 C-3.34 4 -2.68 4 -2 4 C-1.34 2.68 -0.68 1.36 0 0 Z " fill="currentColor" fill-opacity="0.22" transform="translate(176,863)"/>
<path d="M0 0 C0.33 0.99 0.66 1.98 1 3 C0.34 3 -0.32 3 -1 3 C-1.2475 3.639375 -1.495 4.27875 -1.75 4.9375 C-3 7 -3 7 -5.078125 7.62890625 C-5.71234375 7.75136719 -6.3465625 7.87382812 -7 8 C-6.02133662 6.85373678 -5.04205413 5.70800212 -4.0625 4.5625 C-3.51722656 3.92441406 -2.97195313 3.28632813 -2.41015625 2.62890625 C-1.63204305 1.73008851 -0.84063472 0.84063472 0 0 Z " fill="currentColor" transform="translate(971,306)"/>
<path d="M0 0 C0.66 0.33 1.32 0.66 2 1 C-2.82142857 7.29464286 -2.82142857 7.29464286 -7 8 C-6.02133662 6.85373678 -5.04205413 5.70800212 -4.0625 4.5625 C-3.51722656 3.92441406 -2.97195313 3.28632812 -2.41015625 2.62890625 C-1.63204305 1.73008851 -0.84063472 0.84063472 0 0 Z " fill="currentColor" transform="translate(288,1114)"/>
<path d="M0 0 C0.66 0.33 1.32 0.66 2 1 C0.1875 4 0.1875 4 -2 7 C-2.99 7 -3.98 7 -5 7 C-3.35 4.69 -1.7 2.38 0 0 Z " fill="currentColor" fill-opacity="0.22" transform="translate(684,745)"/>
<path d="M0 0 C0.66 0.66 1.32 1.32 2 2 C0.35 3.98 -1.3 5.96 -3 8 C-3.75 6.25 -3.75 6.25 -4 4 C-2.0625 1.75 -2.0625 1.75 0 0 Z " fill="currentColor" transform="translate(917,392)"/>
<path d="M0 0 C3.16115776 1.36983503 3.9927092 1.9890638 6 5 C2.48283697 5 1.62878252 4.17554415 -1 2 C-0.67 1.34 -0.34 0.68 0 0 Z " fill="currentColor" fill-opacity="0.22" transform="translate(1015,153)"/>
</svg>
