<svg xmlns="http://www.w3.org/2000/svg" viewBox="0 0 562 392" fill="none">

<path d="M0 0 C0.82072998 -0.0004985 1.64145996 -0.00099701 2.48706055 -0.00151062 C4.21503126 0.00082042 5.94300597 0.01049146 7.67089844 0.02709961 C10.30434783 0.05070817 12.93678395 0.04765106 15.5703125 0.04101562 C17.25521432 0.04659285 18.94011191 0.05370301 20.625 0.0625 C21.40641357 0.06158859 22.18782715 0.06067719 22.99291992 0.05973816 C28.88962833 0.13559489 33.41383933 0.8773729 38.1875 4.61328125 C40.72447221 7.89642175 40.50152236 9.33821693 40.3125 13.36328125 C41.18986816 13.3475708 42.06723633 13.33186035 42.97119141 13.31567383 C46.24761952 13.26433749 49.52361598 13.22683128 52.80029297 13.19848633 C54.21442437 13.183463 55.62850968 13.1630382 57.04248047 13.13696289 C59.08312397 13.10029171 61.12314792 13.08349089 63.1640625 13.0703125 C64.38947754 13.05460205 65.61489258 13.0388916 66.87744141 13.02270508 C71.3102997 13.46221022 74.68386026 14.84295959 77.95703125 17.8984375 C81.05807143 21.9536439 82.41577991 24.09820481 82.62890625 29.15234375 C82.69174805 30.56386719 82.69174805 30.56386719 82.75585938 32.00390625 C82.79517578 32.98875 82.83449219 33.97359375 82.875 34.98828125 C82.91818359 35.98085938 82.96136719 36.9734375 83.00585938 37.99609375 C83.11211069 40.45167963 83.21414964 42.90736828 83.3125 45.36328125 C84.81876953 45.89115234 84.81876953 45.89115234 86.35546875 46.4296875 C106.98692959 53.80495271 124.44895199 64.14910126 134.5 84.42578125 C140.52496743 98.48403859 141.9130137 111.88307296 142.45410156 127.00927734 C142.79279846 134.67060115 143.85670299 141.31269525 146.375 148.56958008 C149.24976295 157.13622393 150.13149908 168.85526776 146.875 177.42578125 C138.22222726 192.99488595 112.03750282 199.30346423 96.45629883 205.93408203 C95.82298141 206.205047 95.189664 206.47601196 94.53715515 206.75518799 C92.80337296 207.49674985 91.06799753 208.23458352 89.33251953 208.97216797 C88.33591309 209.43123535 87.33930664 209.89030273 86.3125 210.36328125 C85.38260254 210.78923584 84.45270508 211.21519043 83.49462891 211.65405273 C81.0727857 213.22557122 81.0727857 213.22557122 80.39550781 216.14526367 C79.44071175 224.6555892 78.999195 233.03626084 79.05175781 241.59692383 C79.06258307 243.69185704 79.05173087 245.78595009 79.0390625 247.88085938 C79.0327004 254.21667198 79.1971462 260.20791393 80.81054688 266.35864258 C85.29519056 284.26886112 83.66358631 306.68177639 76.66796875 323.62890625 C72.89800147 328.45272605 66.18173479 329.29163651 60.5 330.42578125 C59.66758789 330.5956958 58.83517578 330.76561035 57.97753906 330.94067383 C49.80624243 332.55432674 41.61254873 333.66459307 33.3125 334.36328125 C31.82810425 334.49355713 31.82810425 334.49355713 30.3137207 334.62646484 C18.2194373 335.56699062 6.12501235 335.60564529 -6 335.61328125 C-7.66567017 335.61479187 -7.66567017 335.61479187 -9.36499023 335.61633301 C-25.64462091 335.60634695 -41.62622492 335.2973478 -57.6875 332.36328125 C-58.57775879 332.20279297 -59.46801758 332.04230469 -60.38525391 331.87695312 C-76.19917919 328.92216218 -76.19917919 328.92216218 -80.6875 325.36328125 C-90.85005459 308.85203695 -88.28433854 282.26422689 -85.07421875 264.05078125 C-84.37648532 259.20188631 -85.16331487 254.78997974 -86.18862915 250.0433197 C-87.79410371 242.30691193 -87.96705924 234.8113014 -87.9609375 226.9296875 C-87.96952518 225.56167167 -87.97953365 224.19366411 -87.99087524 222.82566833 C-88.03659152 217.0774207 -88.06172931 211.32923447 -88.06835938 205.58081055 C-88.07342207 202.04061624 -88.09789694 198.50096121 -88.13368607 194.96095085 C-88.14800411 192.98936447 -88.14091015 191.01765886 -88.13314819 189.04603577 C-88.26441291 176.92338511 -92.11911355 167.05961504 -97.21875 156.25585938 C-101.99862342 145.77609264 -102.01317157 135.45974899 -102.0234375 124.17578125 C-102.02987605 122.50626515 -102.03660517 120.83675015 -102.04360962 119.16723633 C-102.05553383 115.68080022 -102.05929523 112.19446285 -102.05810547 108.70800781 C-102.057902 104.25963018 -102.08525424 99.81188939 -102.11964989 95.36366272 C-102.14197279 91.91993343 -102.14594144 88.47635647 -102.14488602 85.03256226 C-102.14723193 83.39323727 -102.155998 81.75390743 -102.17155075 80.11465454 C-102.31162915 63.83365832 -102.31162915 63.83365832 -97.6875 56.36328125 C-97.24148437 55.56535156 -96.79546875 54.76742187 -96.3359375 53.9453125 C-91.06768743 46.62470734 -83.53920928 42.10200986 -74.6875 40.36328125 C-71.3590145 39.94660781 -68.03203814 39.61900046 -64.6875 39.36328125 C-64.5946875 37.63078125 -64.5946875 37.63078125 -64.5 35.86328125 C-63.73886761 30.05193263 -61.32231379 25.43826131 -56.68359375 21.78515625 C-51.71050025 18.5979803 -47.88804515 17.2353597 -41.92578125 17.265625 C-40.80751953 17.26884766 -39.68925781 17.27207031 -38.53710938 17.27539062 C-37.36986328 17.28376953 -36.20261719 17.29214844 -35 17.30078125 C-33.82115234 17.30529297 -32.64230469 17.30980469 -31.42773438 17.31445312 C-28.51427211 17.32624852 -25.60091137 17.34270855 -22.6875 17.36328125 C-22.55174561 16.41928467 -22.41599121 15.47528809 -22.27612305 14.50268555 C-21.63298813 11.07254373 -20.80888586 9.72931727 -18.5 7.17578125 C-17.92894531 6.52222656 -17.35789062 5.86867188 -16.76953125 5.1953125 C-11.50188156 0.56017609 -6.70632107 -0.07904076 0 0 Z " fill="currentColor" transform="translate(121.6875,21.63671875)"/>
<path d="M0 0 C0.81881653 -0.00807175 1.63763306 -0.01614349 2.48126221 -0.02445984 C4.21274722 -0.03826929 5.9442591 -0.04900544 7.67578125 -0.05688477 C9.43693075 -0.06839449 11.19804565 -0.08883045 12.95898438 -0.1184082 C15.51456205 -0.16130472 18.06910596 -0.17728406 20.625 -0.1875 C21.79104767 -0.21376213 21.79104767 -0.21376213 22.98065186 -0.24055481 C29.52053889 -0.21495122 34.59609917 1.7598613 39.63671875 5.94921875 C40.09175781 6.49835937 40.54679688 7.0475 41.015625 7.61328125 C41.48871094 8.15726563 41.96179688 8.70125 42.44921875 9.26171875 C43.93005349 11.85446054 44.21783302 14.29796739 44.578125 17.23828125 C45.65126953 17.20686035 45.65126953 17.20686035 46.74609375 17.17480469 C50.02329152 17.09107292 53.30026341 17.03944074 56.578125 16.98828125 C57.70347656 16.95476563 58.82882812 16.92125 59.98828125 16.88671875 C68.50788898 16.78707422 73.62198752 18.0014415 80.328125 23.48828125 C83.93576853 27.89762334 86.41752544 31.98988742 86.828125 37.73828125 C86.745625 38.56328125 86.663125 39.38828125 86.578125 40.23828125 C87.135 40.21507812 87.691875 40.191875 88.265625 40.16796875 C98.0269688 39.93712616 105.87182971 42.08056112 113.578125 48.23828125 C120.34812391 55.83196336 123.81649275 62.45329894 123.8527832 72.72143555 C123.85789413 73.44591385 123.86300507 74.17039215 123.86827087 74.91682434 C123.88210657 77.29880164 123.8812139 79.68048742 123.87890625 82.0625 C123.88279804 83.73151251 123.88713371 85.40052404 123.89189148 87.0695343 C123.89934192 90.5655132 123.8990721 94.06139112 123.89379883 97.55737305 C123.88802247 102.01114466 123.90489629 106.46449793 123.9281435 110.91820049 C123.94296761 114.36630117 123.94374053 117.81430329 123.94063377 121.26243019 C123.94114319 122.9028792 123.94630868 124.54333429 123.95644569 126.18375206 C124.02765542 139.32447444 121.85659623 149.95870969 116.515625 161.98828125 C115.81248005 163.58551692 115.11318383 165.18445309 114.41796875 166.78515625 C114.11238037 167.47448242 113.80679199 168.16380859 113.49194336 168.87402344 C110.43709567 176.77761548 110.28351237 183.71631654 110.26953125 192.17578125 C110.25840571 193.54232845 110.24600693 194.90886581 110.23240662 196.27539062 C110.17745594 202.04173934 110.14656204 207.80815793 110.12182617 213.57470703 C110.10572737 217.11671428 110.07527628 220.65839201 110.03706169 224.20022583 C110.02010912 226.17109903 110.01935881 228.14209101 110.0191803 230.11303711 C109.93361643 238.05171042 108.98191041 245.26142925 107.19444275 252.95947266 C106.31901683 257.61673594 106.81103095 261.62151153 107.578125 266.23828125 C110.10641423 283.81746463 112.28815013 309.99904306 102.015625 325.61328125 C94.45044297 330.65673594 84.29683393 331.19494584 75.515625 332.36328125 C74.30068359 332.53214844 73.08574219 332.70101563 71.83398438 332.875 C68.41696188 333.34541936 65.00026217 333.80659019 61.578125 334.23828125 C60.56446869 334.37151794 60.56446869 334.37151794 59.53033447 334.50744629 C53.69997702 335.22551896 47.94127746 335.41359779 42.0703125 335.44140625 C41.0789328 335.44837524 40.0875531 335.45534424 39.06613159 335.46252441 C35.86175275 335.47989757 32.65754906 335.48625034 29.453125 335.48828125 C28.35842896 335.48928833 27.26373291 335.49029541 26.13586426 335.49133301 C-40.23577795 335.4500707 -40.23577795 335.4500707 -53.421875 325.23828125 C-60.86179828 314.97950505 -60.70689777 299.82022399 -60.796875 287.73828125 C-60.81073242 286.63564941 -60.82458984 285.53301758 -60.83886719 284.39697266 C-60.80501177 278.3484356 -60.22155509 272.80976132 -58.91796875 266.8984375 C-57.34141533 259.60476397 -56.99358416 252.61998928 -57.08569336 245.20385742 C-57.10941202 243.17261117 -57.10620229 241.14267958 -57.09960938 239.11132812 C-56.30940972 223.74065884 -56.30940972 223.74065884 -62.0625 210.578125 C-63.84914063 209.88396484 -63.84914063 209.88396484 -65.671875 209.17578125 C-66.34500732 208.89234863 -67.01813965 208.60891602 -67.71166992 208.31689453 C-69.30225785 207.65108295 -70.90325661 207.00985869 -72.51123047 206.38720703 C-77.9814091 204.22795014 -83.35073103 201.82492234 -88.74133301 199.47561646 C-90.68872265 198.63303378 -92.64147454 197.80448692 -94.59667969 196.98022461 C-119.97692276 186.23178396 -119.97692276 186.23178396 -124.796875 177.42578125 C-129.49556988 165.50136231 -126.06501203 151.97240132 -122.421875 140.23828125 C-121.926875 139.24828125 -121.926875 139.24828125 -121.421875 138.23828125 C-121.25686558 136.13848093 -121.14674744 134.03427579 -121.0625 131.9296875 C-119.86643481 106.45270692 -117.49397462 84.07657229 -98.421875 65.23828125 C-97.81988281 64.614375 -97.21789062 63.99046875 -96.59765625 63.34765625 C-88.01792162 55.08431097 -72.44804224 46.04963549 -60.421875 46.23828125 C-60.4532959 45.28574463 -60.4532959 45.28574463 -60.48535156 44.31396484 C-60.56892081 41.41390049 -60.62066274 38.51409009 -60.671875 35.61328125 C-60.70539063 34.61425781 -60.73890625 33.61523438 -60.7734375 32.5859375 C-60.85494671 26.43199211 -60.54606765 22.90986674 -56.421875 18.23828125 C-51.59039405 13.9819766 -49.06974937 13.11027755 -42.6640625 12.921875 C-41.66948532 12.89070335 -41.66948532 12.89070335 -40.65481567 12.85890198 C-38.53560806 12.79348894 -36.416276 12.7345602 -34.296875 12.67578125 C-32.86066419 12.63258816 -31.42446598 12.58897361 -29.98828125 12.54492188 C-26.46627906 12.43781626 -22.94413675 12.3365255 -19.421875 12.23828125 C-18.96683594 11.13226563 -18.51179688 10.02625 -18.04296875 8.88671875 C-16.4925727 5.39739366 -15.38392659 3.57201886 -12.421875 1.23828125 C-8.34089504 -0.03645677 -4.23874765 0.0398636 0 0 Z " fill="currentColor" transform="translate(402.421875,21.76171875)"/>
<path d="M0 0 C2.9855331 -0.10469221 5.92393275 -0.04543507 8.90869141 0.07666016 C10.46233398 0.11049805 10.46233398 0.11049805 12.04736328 0.14501953 C14.60675544 0.2039917 17.16325092 0.28623448 19.72119141 0.38916016 C20.35347656 1.56285156 20.35347656 1.56285156 20.99853516 2.76025391 C21.54638672 3.77216797 22.09423828 4.78408203 22.65869141 5.82666016 C23.20396484 6.83599609 23.74923828 7.84533203 24.31103516 8.88525391 C25.49818608 11.25586509 25.49818608 11.25586509 26.72119141 12.38916016 C26.84126838 15.48832661 26.89669366 18.56618621 26.91064453 21.66650391 C26.92308449 23.12734909 26.92308449 23.12734909 26.93577576 24.6177063 C26.95321852 26.73975978 26.96837364 28.86183299 26.98155212 30.98391724 C27.00250238 34.33641716 27.02953057 37.6888178 27.05822754 41.04125977 C27.12822098 49.3683178 27.18752408 57.6954462 27.24725342 66.02258301 C27.2980883 73.05343782 27.35288705 80.08423956 27.41307068 87.11502075 C27.43975335 90.42830859 27.46050278 93.74160105 27.4810791 97.05493164 C27.49767449 99.07389564 27.51454566 101.0928574 27.53173828 103.11181641 C27.5359227 104.04172394 27.54010712 104.97163147 27.54441833 105.92971802 C27.17577711 109.98181361 27.17577711 109.98181361 28.72119141 113.38916016 C31.17929139 113.63923746 31.17929139 113.63923746 33.72119141 113.38916016 C36.79860119 110.31175037 36.02980053 106.66512998 36.04003906 102.53320312 C36.05008469 101.61607544 36.06013031 100.69894775 36.07048035 99.75402832 C36.10144826 96.71314133 36.11838518 93.6723429 36.13525391 90.63134766 C36.15395462 88.52669505 36.17352719 86.42205003 36.19393921 84.31741333 C36.24538233 78.7706549 36.28494274 73.22387214 36.32208252 67.67700195 C36.36204598 62.01979491 36.41317315 56.36269018 36.46337891 50.70556641 C36.56028241 39.60016219 36.64360957 28.49471618 36.72119141 17.38916016 C44.97119141 17.38916016 53.22119141 17.38916016 61.72119141 17.38916016 C62.71119141 21.01916016 63.70119141 24.64916016 64.72119141 28.38916016 C66.03882437 30.06826674 67.36918926 31.73760157 68.72119141 33.38916016 C69.22671509 36.67240906 69.22671509 36.67240906 69.23535156 40.44262695 C69.24247665 41.13264801 69.24960175 41.82266907 69.25694275 42.53359985 C69.27615937 44.80215433 69.26795905 47.06977059 69.26025391 49.33837891 C69.27016202 50.91829285 69.28210371 52.49819524 69.29598999 54.07807922 C69.32831669 58.2283725 69.33874196 62.3784018 69.34283447 66.52880859 C69.35160094 73.1823962 69.38698188 79.83576762 69.435009 86.4891758 C69.44762588 88.81478008 69.44683392 91.14011234 69.44473267 93.46574402 C69.45131016 94.88512383 69.45831586 96.30450174 69.46582031 97.72387695 C69.46707916 98.96566208 69.46833801 100.2074472 69.46963501 101.48686218 C69.41857625 104.51548239 69.41857625 104.51548239 71.72119141 106.38916016 C74.69119141 105.89416016 74.69119141 105.89416016 77.72119141 105.38916016 C78.21619141 72.71916016 78.21619141 72.71916016 78.72119141 39.38916016 C91.09479514 39.38916016 91.09479514 39.38916016 95.88998413 43.04069519 C98.35761807 46.20535707 98.24049416 48.22480083 98.27050781 52.21459961 C98.28072968 52.89334641 98.29095154 53.5720932 98.30148315 54.27140808 C98.32927211 56.51544572 98.32735846 58.75825203 98.32275391 61.00244141 C98.33053719 62.57505238 98.33920845 64.14765918 98.34872437 65.72026062 C98.36365455 69.02319919 98.3630694 72.32571052 98.35253906 75.62866211 C98.3410443 79.82031676 98.37457016 84.0101764 98.42122841 88.20153522 C98.45102155 91.45600783 98.45240256 94.71006622 98.44620895 97.96465111 C98.44722276 99.5069244 98.45745616 101.0492249 98.47783279 102.59136391 C98.60901544 113.92384751 96.47839246 122.08375053 91.72119141 132.38916016 C90.75027211 134.77333458 89.82956896 137.17235049 88.90869141 139.57666016 C88.31121094 141.11386719 88.31121094 141.11386719 87.70166016 142.68212891 C86.08036383 147.15845701 85.59721366 150.82987631 85.59521484 155.61621094 C85.5895047 157.51066452 85.5895047 157.51066452 85.5836792 159.44338989 C85.5833884 160.453906 85.5833884 160.453906 85.58309174 161.48483658 C85.57964482 164.35070781 85.55822304 167.21635858 85.53786087 170.08215141 C85.5001113 175.40570593 85.4685479 180.72903042 85.47070312 186.05273438 C85.46904848 218.59881431 85.46904848 218.59881431 79.72119141 233.38916016 C72.36749346 234.6068947 65.06712923 235.5421894 57.62353516 235.94384766 C56.85517838 235.98540482 56.08682159 236.02696198 55.29518127 236.06977844 C45.25408655 236.56546119 35.20990433 236.5849491 25.15869141 236.57666016 C24.14269867 236.57705292 23.12670593 236.57744568 22.07992554 236.57785034 C8.53989049 236.57161736 -4.95218038 236.3092782 -18.46630859 235.45166016 C-19.15685333 235.40818451 -19.84739807 235.36470886 -20.55886841 235.31991577 C-32.17331761 234.56594031 -32.17331761 234.56594031 -36.27880859 233.38916016 C-36.3085376 232.39456787 -36.3085376 232.39456787 -36.33886719 231.37988281 C-35.59143501 201.91488663 -35.59143501 201.91488663 -45.27880859 175.38916016 C-56.75669611 165.09185535 -72.5683347 159.99010596 -86.63037109 154.04541016 C-93.39720643 151.17085166 -99.96293645 148.16894555 -106.27880859 144.38916016 C-106.61374697 137.12776638 -105.73049297 131.24803906 -103.27880859 124.38916016 C-102.32103516 124.64310547 -101.36326172 124.89705078 -100.37646484 125.15869141 C-87.24687107 128.58206198 -74.28084813 131.61246769 -60.65380859 131.76416016 C-59.55286865 131.78494629 -59.55286865 131.78494629 -58.4296875 131.80615234 C-52.26809519 131.75241342 -47.4327316 130.43262558 -42.84130859 126.07666016 C-36.03013171 113.72770033 -43.90612735 91.10550346 -47.27880859 78.51416016 C-49.32407305 70.6477584 -49.68399993 62.9206047 -49.84130859 54.82666016 C-49.8803833 53.68261719 -49.91945801 52.53857422 -49.9597168 51.35986328 C-49.98530958 43.34634674 -49.98530958 43.34634674 -47.93847656 40.57324219 C-46.30615234 39.23681641 -46.30615234 39.23681641 -43.27880859 37.38916016 C-42.02042303 34.87238902 -42.07061887 32.97622728 -41.96240234 30.16259766 C-41.92050781 29.13134766 -41.87861328 28.10009766 -41.83544922 27.03759766 C-41.79613281 25.95736328 -41.75681641 24.87712891 -41.71630859 23.76416016 C-41.6515332 22.13220703 -41.6515332 22.13220703 -41.58544922 20.46728516 C-41.47916432 17.77473445 -41.37846355 15.08196439 -41.27880859 12.38916016 C-35.33880859 12.38916016 -29.39880859 12.38916016 -23.27880859 12.38916016 C-23.25375244 15.20116943 -23.22869629 18.01317871 -23.20288086 20.91040039 C-23.11958125 30.17845523 -23.03087327 39.44645253 -22.93946934 48.71443081 C-22.88419302 54.33621145 -22.83076563 59.95799725 -22.78149414 65.57983398 C-22.73391987 71.00038915 -22.68157985 76.42087886 -22.62586784 81.84135628 C-22.60541275 83.9142908 -22.58670501 85.98724329 -22.56973457 88.06020927 C-22.54576014 90.95304774 -22.51569646 93.84576125 -22.48413086 96.73852539 C-22.4783754 97.6045488 -22.47261993 98.4705722 -22.46669006 99.36283875 C-22.78955661 103.18597758 -22.78955661 103.18597758 -21.27880859 106.38916016 C-18.82070861 106.63923746 -18.82070861 106.63923746 -16.27880859 106.38916016 C-13.86666957 104.4192402 -13.86666957 104.4192402 -14.0541687 100.65838623 C-14.05501188 99.01229313 -14.06683023 97.36618564 -14.08691406 95.72021484 C-14.08971878 94.82247849 -14.0925235 93.92474213 -14.09541321 92.99980164 C-14.10192281 91.04580774 -14.11252155 89.09182427 -14.12667465 87.13787079 C-14.14610136 84.04427196 -14.14834711 80.95113594 -14.14480591 77.85748291 C-14.13509977 69.06004738 -14.13472621 60.26306259 -14.19970703 51.46582031 C-14.2381752 46.08799205 -14.23781614 40.71136173 -14.2121315 35.33347321 C-14.20971651 33.28415755 -14.22180761 31.23477124 -14.24871445 29.1856308 C-14.28486906 26.31429129 -14.27153685 23.44705746 -14.24707031 20.57568359 C-14.26962387 19.73077866 -14.29217743 18.88587372 -14.31541443 18.0153656 C-14.23877302 14.36042772 -14.13444542 12.24480967 -11.47883987 9.58916473 C-9.29959106 7.99346924 -9.29959106 7.99346924 -7.12179756 6.65755081 C-5.00258776 5.43200352 -5.00258776 5.43200352 -3.97802734 2.53369141 C-2.27880859 0.38916016 -2.27880859 0.38916016 0 0 Z " fill="currentColor" fill-opacity="0.22" transform="translate(405.27880859375,44.61083984375)"/>
<path d="M0 0 C3.58271776 -0.1743959 7.16434602 -0.28087658 10.75 -0.375 C11.76578125 -0.42527344 12.7815625 -0.47554687 13.828125 -0.52734375 C16.6643509 -0.58332189 19.21755876 -0.55947518 22 0 C24.265625 2.7109375 24.265625 2.7109375 26 6 C27.67930262 7.13165749 27.67930262 7.13165749 29.55497742 8.13850403 C31.70636973 9.62583076 32.80751781 10.42822458 33.64917946 12.92841148 C33.88765831 15.33403157 33.90874022 17.65599058 33.85473633 20.07299805 C33.8622995 20.97759766 33.86986267 21.88219727 33.87765503 22.81420898 C33.89483509 25.79761348 33.8632576 28.77846218 33.83203125 31.76171875 C33.83633802 33.83487384 33.84400899 35.90802446 33.85490417 37.9811554 C33.87582807 43.43376241 33.8567595 48.8854706 33.82763672 54.3380127 C33.78814886 63.07597483 33.81112526 71.81402132 33.83063316 80.55201149 C33.83201866 83.60893416 33.81759555 86.66546677 33.80049133 89.72233582 C33.79748553 91.58661867 33.79472059 93.45090193 33.79223633 95.31518555 C33.7833992 96.16975845 33.77456207 97.02433136 33.76545715 97.90480042 C33.56805311 102.42719596 33.56805311 102.42719596 36 106 C37.98 105.67 39.96 105.34 42 105 C42.33 74.31 42.66 43.62 43 12 C48.94 12 54.88 12 61 12 C61.03867187 14.40345703 61.03867187 14.40345703 61.078125 16.85546875 C61.13441044 18.96617291 61.19175768 21.07684894 61.25 23.1875 C61.26417969 24.24259766 61.27835938 25.29769531 61.29296875 26.38476562 C61.45368238 32.54713368 61.45368238 32.54713368 63.859375 38.11328125 C66.05511486 40.13354178 66.05511486 40.13354178 69 42 C69.78328215 45.62469107 69.61873458 49.36399308 69.625 53.0625 C69.62878662 54.19179932 69.63257324 55.32109863 69.63647461 56.48461914 C69.33061881 72.27295939 65.99378296 89.01865111 61 104 C60.72646168 106.93270806 60.72280096 109.8683996 60.6875 112.8125 C60.65849609 113.60720703 60.62949219 114.40191406 60.59960938 115.22070312 C60.54156714 120.61863061 61.24507257 123.83408549 65 128 C69.8265828 131.30166244 74.21460654 131.54167023 79.875 131.5 C80.73125977 131.49790527 81.58751953 131.49581055 82.46972656 131.49365234 C96.25401861 131.17015857 109.70268401 127.37159434 123 124 C125.44166784 130.83085645 126.41640288 136.7515055 126 144 C116.64935611 148.86344965 107.16698946 153.2988605 97.5 157.5 C76.01546986 165.18010086 76.01546986 165.18010086 61.20996094 180.94189453 C59.29675662 186.27087415 58.35252421 191.37427677 57.875 197 C57.75825928 198.25151855 57.75825928 198.25151855 57.63916016 199.52832031 C56.66991868 210.65935759 56.3390809 221.83514107 56 233 C52.81287186 233.31636426 49.62523415 233.62730641 46.4375 233.9375 C45.56158203 234.02451172 44.68566406 234.11152344 43.78320312 234.20117188 C29.34108713 235.598796 15.06112209 236.17060825 0.5625 236.125 C-0.75186035 236.12267365 -0.75186035 236.12267365 -2.09277344 236.12030029 C-21.50815715 236.08007261 -40.76011232 235.81478291 -60 233 C-64.31197048 221.89824116 -65.47512685 211.17352468 -65.53125 199.33203125 C-65.53503662 198.62906796 -65.53882324 197.92610466 -65.54272461 197.20183945 C-65.56193847 192.0718215 -65.53551019 186.94238949 -65.5 181.8125 C-65.4644506 176.66345794 -65.44592959 171.51542207 -65.46812439 166.36627769 C-65.4687277 164.34425393 -65.43958422 162.32228842 -65.40930176 160.30049133 C-65.43629749 150.57841947 -67.47696226 142.97000849 -71 134 C-71.31386658 133.19832901 -71.62773315 132.39665802 -71.95111084 131.57069397 C-72.68215841 129.78231168 -73.46302293 128.01448543 -74.25 126.25 C-76.78865881 120.51838886 -78.12840928 116.43166045 -78.19287109 110.12939453 C-78.20104858 109.43473083 -78.20922607 108.74006714 -78.21765137 108.02435303 C-78.24244953 105.72718154 -78.25900529 103.43007153 -78.2734375 101.1328125 C-78.27876118 100.34745998 -78.28408485 99.56210747 -78.28956985 98.75295639 C-78.31627482 94.59752123 -78.33565976 90.44211586 -78.35009766 86.28662109 C-78.36344759 82.84885106 -78.39132226 79.41167311 -78.43212891 75.97412109 C-78.48142861 71.82088655 -78.50621481 67.6681898 -78.51332474 63.51467514 C-78.52003837 61.93341067 -78.53526359 60.35215825 -78.55921555 58.77106094 C-78.59085439 56.55653594 -78.59090758 54.34408641 -78.58349609 52.12939453 C-78.59158295 50.87047394 -78.5996698 49.61155334 -78.60800171 48.31448364 C-77.81392156 43.98560492 -76.55132703 42.55986032 -73 40 C-69.44921875 39.29296875 -69.44921875 39.29296875 -65.6875 39.1875 C-63.80611328 39.11595703 -63.80611328 39.11595703 -61.88671875 39.04296875 C-60.93410156 39.02878906 -59.98148438 39.01460937 -59 39 C-58.98969254 39.82463242 -58.97938507 40.64926483 -58.96876526 41.49888611 C-58.8709612 49.25405684 -58.76847166 57.00914453 -58.66066074 64.76418209 C-58.60539527 68.75153216 -58.55196963 72.73888952 -58.50268555 76.72631836 C-58.45509524 80.57131601 -58.40275464 84.41622182 -58.34705925 88.26111031 C-58.32661143 89.73116342 -58.30790244 91.20124174 -58.29092598 92.67133904 C-58.26693536 94.72361276 -58.2368741 96.77571147 -58.20532227 98.82788086 C-58.18200584 100.58327431 -58.18200584 100.58327431 -58.15821838 102.37413025 C-58.29584674 104.9252526 -58.29584674 104.9252526 -57 106 C-54.54190002 106.2500773 -54.54190002 106.2500773 -52 106 C-49.69813504 104.12804718 -49.69813504 104.12804718 -49.75517273 101.11116028 C-49.75693008 99.87540756 -49.75868744 98.63965485 -49.76049805 97.36645508 C-49.75848389 96.68490356 -49.75646973 96.00335205 -49.75439453 95.30114746 C-49.75084508 93.81863117 -49.75162098 92.33609976 -49.75617027 90.8535862 C-49.76175762 88.50318078 -49.75261317 86.15327003 -49.7389679 83.80290222 C-49.70182558 77.11947548 -49.68326795 70.43621255 -49.69458008 63.75268555 C-49.7004498 59.6652418 -49.68207556 55.57848903 -49.64869118 51.49118614 C-49.6407607 49.93677388 -49.64198223 48.38228583 -49.65271568 46.8278904 C-49.70900254 38.30515209 -49.64974026 32.67308541 -44 26 C-43.34 23.03 -42.68 20.06 -42 17 C-33.75 17 -25.5 17 -17 17 C-16.970271 21.25559814 -16.970271 21.25559814 -16.93994141 25.59716797 C-16.87314406 34.95306313 -16.7955033 44.30884542 -16.71247292 53.66460991 C-16.66244888 59.33904432 -16.61611953 65.01345956 -16.578125 70.68798828 C-16.54134918 76.16046873 -16.49501056 81.63279106 -16.44193649 87.10513687 C-16.42335146 89.19677085 -16.40825883 91.28843877 -16.39665604 93.38012314 C-16.37986368 96.30159577 -16.35084613 99.222703 -16.31884766 102.14404297 C-16.31668747 103.01582184 -16.31452728 103.88760071 -16.31230164 104.78579712 C-16.45384922 109.37091487 -16.45384922 109.37091487 -14 113 C-11.45809998 113.2500773 -11.45809998 113.2500773 -9 113 C-7.07596584 111.07596584 -7.8822235 108.20039203 -7.87876892 105.64053345 C-7.88243973 104.72476532 -7.88611053 103.80899719 -7.88989258 102.86547852 C-7.88934959 100.87585957 -7.88876256 98.88624063 -7.88813782 96.8966217 C-7.88956598 95.83524553 -7.89099415 94.77386936 -7.89246559 93.68033028 C-7.89597506 88.07134287 -7.87018242 82.46245701 -7.84960938 76.85351562 C-7.82530603 69.7102832 -7.80952215 62.56734015 -7.82495117 55.42407227 C-7.83664132 49.65844831 -7.81913168 43.89354601 -7.78250694 38.12803459 C-7.77391081 35.93414803 -7.77594222 33.74019207 -7.789011 31.54632759 C-7.90826564 9.89508452 -7.90826564 9.89508452 -1 2 C-0.67 1.34 -0.34 0.68 0 0 Z " fill="currentColor" fill-opacity="0.22" transform="translate(121,45)"/>
<path d="M0 0 C1.09103027 0.09087891 1.09103027 0.09087891 2.20410156 0.18359375 C21.30237241 1.70536832 40.34285892 2.21956219 59.5 2.25 C60.5785022 2.25499512 61.65700439 2.25999023 62.76818848 2.26513672 C75.75592748 2.31447661 88.59328227 1.90575712 101.52966309 0.6987915 C107.71011635 0.12743593 113.79323297 -0.12053007 120 0 C121.31248871 6.98952324 121.14694203 13.97156724 121.125 21.0625 C121.12886719 22.31611328 121.13273437 23.56972656 121.13671875 24.86132812 C121.13542969 26.07369141 121.13414062 27.28605469 121.1328125 28.53515625 C121.13168457 29.632229 121.13055664 30.72930176 121.12939453 31.85961914 C121.00067024 34.9837334 120.58136353 37.93066615 120 41 C87.98167457 48.54572001 55.12482259 48.88753714 22.5625 45.1875 C21.8259317 45.105 21.0893634 45.0225 20.33047485 44.9375 C5.0885243 43.17761531 5.0885243 43.17761531 -1 40 C-2.89451946 36.96391112 -2.79680725 33.53555386 -3 30 C-3.06832031 28.85660156 -3.13664062 27.71320313 -3.20703125 26.53515625 C-3.46787103 17.32847812 -1.92270896 8.95881985 0 0 Z " fill="currentColor" fill-opacity="0.22" transform="translate(367,288)"/>
<path d="M0 0 C2.70842066 0.14432627 5.4167266 0.29045436 8.125 0.4375 C9.23681641 0.49647461 9.23681641 0.49647461 10.37109375 0.55664062 C13.85574626 0.74697879 17.33323194 0.94026435 20.80957031 1.25170898 C33.35200991 2.33318832 45.92039199 2.19508341 58.5 2.1875 C59.71989624 2.1882251 60.93979248 2.1889502 62.19665527 2.18969727 C79.79492579 2.18853998 97.25002617 1.83182394 114.77832031 0.18359375 C117 0 117 0 120 0 C123.08742837 11.76163188 126.28787663 28.37664854 121 40 C94.00357549 56.24697346 35.68610938 48.84974014 6 43 C3.98902014 42.3672248 1.98508037 41.70985939 0 41 C-0.79697155 36.79235428 -1.12841196 32.81530708 -1.1328125 28.53515625 C-1.13410156 27.32279297 -1.13539062 26.11042969 -1.13671875 24.86132812 C-1.13285156 23.60771484 -1.12898438 22.35410156 -1.125 21.0625 C-1.12886719 19.81275391 -1.13273437 18.56300781 -1.13671875 17.27539062 C-1.13049947 11.41994101 -1.08214947 5.76287538 0 0 Z " fill="currentColor" fill-opacity="0.22" transform="translate(59,288)"/>
<path d="M0 0 C0.00410889 0.56581787 0.00821777 1.13163574 0.01245117 1.71459961 C0.23859633 19.77907471 3.03744869 36.78166478 7.640625 54.23046875 C8.84429432 58.99897045 9.40578274 63.21002234 9.375 68.125 C9.38660156 70.01605469 9.38660156 70.01605469 9.3984375 71.9453125 C9.26695312 72.95335937 9.13546875 73.96140625 9 75 C1.90745869 79.72836087 -10.08485434 77.4597349 -18.09375 75.94921875 C-25.83025923 74.34059538 -33.55180739 72.67435104 -41 70 C-41.52796313 49.99606348 -41.63321624 29.4825302 -27.5 13.625 C-21.01293012 7.71144317 -8.84738867 0 0 0 Z " fill="currentColor" fill-opacity="0.22" transform="translate(346,90)"/>
<path d="M0 0 C13.33720852 3.71329475 25.26558265 9.03345651 32.93359375 21.0234375 C41.28353434 36.19567882 41.47357046 52.03916175 41 69 C28.57324597 74.99737004 14.04369113 77.34520464 0.3125 77.375 C-0.3997876 77.37661133 -1.1120752 77.37822266 -1.84594727 77.37988281 C-6.72857996 77.27142004 -6.72857996 77.27142004 -9 75 C-10.81333313 63.4051295 -7.41502777 52.23903846 -4.5078125 41.11328125 C-1.93222503 31.01498601 -0.69807839 21.15581651 -0.375 10.75 C-0.31699219 9.18572266 -0.31699219 9.18572266 -0.2578125 7.58984375 C-0.16497622 5.06005523 -0.07911046 2.5302484 0 0 Z " fill="currentColor" fill-opacity="0.22" transform="translate(200,90)"/>
</svg>
